<?xml version="1.0" encoding="utf-8"?>
<!-- Generator: Adobe Illustrator 24.2.3, SVG Export Plug-In . SVG Version: 6.00 Build 0)  -->
<svg version="1.1" id="Layer_1" xmlns="http://www.w3.org/2000/svg" xmlns:xlink="http://www.w3.org/1999/xlink" x="0px" y="0px"
	 viewBox="0 0 595.28 204.09" style="enable-background:new 0 0 595.28 204.09;" xml:space="preserve">
<style type="text/css">
	.st0{fill:#1061AE;}
	.st1{fill:#F99C22;}
	.st2{fill:#898A8C;}
</style>
<g>
	<g>
		<path class="st0" d="M310.02,59.23c-23.6,0-42.79,19.2-42.79,42.79c0,23.6,19.2,42.79,42.79,42.79c23.6,0,42.79-19.2,42.79-42.79
			C352.81,78.43,333.62,59.23,310.02,59.23z M310.02,121.44c-10.71,0-19.42-8.71-19.42-19.42s8.71-19.42,19.42-19.42
			c10.71,0,19.42,8.71,19.42,19.42S320.73,121.44,310.02,121.44z"/>
	</g>
	<path class="st0" d="M146.4,143.98c-5.41,0-10.33-0.98-14.78-2.93c-4.44-1.95-8.27-4.51-11.47-7.69c-3.21-3.17-5.68-6.81-7.42-10.9
		c-1.74-4.09-2.61-8.32-2.61-12.68V61.83h18.43v47.96c0,2.22,0.44,4.36,1.33,6.43c0.89,2.07,2.12,3.9,3.71,5.51
		c1.58,1.61,3.48,2.89,5.68,3.84c2.2,0.96,4.58,1.43,7.13,1.43c2.63,0,5.02-0.48,7.19-1.43c2.16-0.96,4.04-2.22,5.62-3.79
		c1.58-1.57,2.82-3.39,3.71-5.45c0.89-2.07,1.33-4.25,1.33-6.54V61.83h18.43v47.96c0,4.36-0.87,8.59-2.61,12.68
		c-1.74,4.09-4.19,7.73-7.36,10.9c-3.17,3.18-6.99,5.74-11.47,7.69C156.75,143.01,151.81,143.98,146.4,143.98z"/>
	<path class="st0" d="M260.2,61.83v17.33h-23.64v63.34h-18.54V79.15h-23.76V61.83H260.2z"/>
	<path class="st1" d="M310.27,177.34c20.64,0,39.33-8.31,52.94-21.76l-16.11-16.33c-9.47,9.37-22.48,15.17-36.83,15.17
		c-14.36,0-27.39-5.81-36.86-15.2l-16.11,16.33C270.91,169.02,289.62,177.34,310.27,177.34z"/>
	<path class="st1" d="M310.27,26.75c-20.57,0-39.21,8.25-52.79,21.62l16.11,16.33c9.46-9.29,22.41-15.04,36.69-15.04
		c14.26,0,27.2,5.73,36.66,15l16.11-16.33C349.45,34.99,330.82,26.75,310.27,26.75z"/>
	<path class="st0" d="M70.61,62.17H52.41l-38.24,80.32h20.4c3.24-4.21,7.32-7.3,12.23-9.29c2.67-1.08,5.4-1.86,8.17-2.35v-18.29
		c-2.39,0.27-4.75,0.68-7.07,1.26l13.68-27.66l13.56,27.43c-2.22-0.48-4.51-0.84-6.85-1.09v18.22c0.59,0.09,1.17,0.19,1.76,0.31
		c2.63,0.54,5.1,1.32,7.42,2.35c2.32,1.03,4.42,2.31,6.32,3.84c1.89,1.53,3.46,3.29,4.69,5.28h20.4L70.61,62.17z"/>
	<g>
		<path class="st0" d="M249.07,46.79c15.11-16.72,36.96-27.25,61.22-27.25c24.23,0,46.05,10.5,61.16,27.18
			c2.07-0.85,4.2-1.6,6.38-2.21c-16.29-19.09-40.52-31.23-67.53-31.23c-27.04,0-51.29,12.15-67.58,31.28
			C244.89,45.18,247.01,45.93,249.07,46.79z"/>
		<path class="st0" d="M371.7,157.1c-15.12,16.85-37.04,27.46-61.41,27.46c-24.4,0-46.35-10.65-61.47-27.53
			c-2.07,0.85-4.19,1.59-6.37,2.2c16.3,19.3,40.66,31.59,67.84,31.59c27.16,0,51.5-12.26,67.8-31.54
			C375.91,158.67,373.78,157.94,371.7,157.1z"/>
	</g>
	<g>
		<path class="st1" d="M455.29,119.02c1.11,1.19,2.41,2.39,3.91,3.62c1.5,1.23,3.16,2.35,5,3.37c1.84,1.02,3.85,1.84,6.03,2.48
			c2.18,0.64,4.51,0.95,6.99,0.95c1.45,0,2.91-0.21,4.36-0.64c1.45-0.42,2.78-1.04,3.98-1.84c1.2-0.8,2.16-1.78,2.89-2.92
			c0.73-1.14,1.09-2.43,1.09-3.87c0-3.13-1.54-5.57-4.62-7.3c-3.08-1.73-7.95-3.45-14.62-5.14c-3.25-0.76-6.27-1.86-9.04-3.3
			c-2.78-1.44-5.17-3.17-7.18-5.21c-2.01-2.03-3.57-4.36-4.68-6.98c-1.11-2.62-1.67-5.54-1.67-8.76c0-3.56,0.64-6.9,1.92-10.03
			c1.28-3.13,3.23-5.91,5.84-8.32c2.61-2.41,5.86-4.32,9.75-5.71c3.89-1.4,8.49-2.1,13.79-2.1c4.36,0,8.21,0.44,11.54,1.33
			c3.33,0.89,6.18,1.95,8.53,3.17c2.35,1.23,4.27,2.5,5.77,3.81c1.49,1.31,2.63,2.35,3.4,3.11L497.1,80.92
			c-0.94-0.76-2.03-1.59-3.27-2.48c-1.24-0.89-2.63-1.71-4.17-2.48c-1.54-0.76-3.23-1.4-5.07-1.9c-1.84-0.51-3.78-0.76-5.84-0.76
			c-1.37,0-2.72,0.21-4.04,0.64c-1.33,0.42-2.52,1-3.59,1.71c-1.07,0.72-1.92,1.57-2.57,2.54c-0.64,0.97-0.96,2.01-0.96,3.11
			c0,2.88,1.54,5.21,4.62,6.98c3.08,1.78,7.31,3.26,12.7,4.44c3.16,0.76,6.26,1.8,9.3,3.11c3.03,1.31,5.75,3.03,8.14,5.14
			c2.39,2.12,4.32,4.72,5.77,7.81c1.45,3.09,2.18,6.84,2.18,11.24c0,3.81-0.86,7.32-2.57,10.54c-1.71,3.22-4.04,6.01-6.99,8.38
			c-2.95,2.37-6.41,4.21-10.39,5.52c-3.98,1.31-8.27,1.97-12.89,1.97c-4.28,0-8.17-0.4-11.67-1.21c-3.51-0.81-6.67-1.86-9.49-3.17
			c-2.82-1.31-5.37-2.81-7.63-4.51c-2.27-1.69-4.21-3.43-5.84-5.21L455.29,119.02z"/>
		<path class="st1" d="M436.59,111.21c-1.24-2.5-2.76-4.57-4.55-6.22c-1.8-1.65-3.7-2.92-5.71-3.81c-2.01-0.89-3.78-1.5-5.32-1.84
			c1.03-0.25,2.29-0.8,3.78-1.65c1.5-0.85,2.91-2.01,4.23-3.49c1.32-1.48,2.48-3.26,3.46-5.33c0.98-2.07,1.48-4.46,1.48-7.18
			c0-2.88-0.51-5.65-1.54-8.32c-1.03-2.67-2.69-5.02-5-7.05c-2.31-2.03-5.3-3.66-8.98-4.89c-3.68-1.23-8.17-1.84-13.47-1.84h-32.07
			v35.93h13.88c2.8,0,5.07-2.27,5.07-5.07v-8.53h18v-2.87h-18.8c-1.3,0-2.35-1.05-2.35-2.35c0-1.3,1.05-2.35,2.35-2.35h23.48
			c1.3,0,2.35,1.05,2.35,2.35c0,1.3-1.05,2.35-2.35,2.35h-0.81v21.2h1.2c0.94,0,1.7,0.76,1.7,1.7s-0.76,1.7-1.7,1.7h-1.2v21.16h0.81
			c1.3,0,2.35,1.05,2.35,2.35c0,1.3-1.05,2.35-2.35,2.35h-23.48c-1.3,0-2.35-1.05-2.35-2.35c0-1.3,1.05-2.35,2.35-2.35h18.8v-2.75
			h-18v-8.6c0-2.8-2.27-5.07-5.07-5.07h-13.88v35.92h32.07c5.13,0,9.77-0.44,13.92-1.33c4.15-0.89,7.65-2.31,10.52-4.25
			c2.86-1.95,5.09-4.44,6.67-7.49c1.58-3.05,2.37-6.77,2.37-11.18C438.45,116.65,437.83,113.71,436.59,111.21z"/>
		<path class="st1" d="M564.24,121.65c-3.25,5.04-7.78,7.6-13.46,7.6c-6.69,0-9.93-3.01-11.94-5.93l42.26-17.54l-3.19-7.47
			c-4.78-11.8-15.57-19.67-27.56-20.16l-0.02-0.03h-1.17c-18.33,0-32.15,14.72-32.15,34.24c0,10.14,3.57,18.88,10.34,25.27
			c6.22,5.88,14.52,9.12,23.36,9.12c11.58,0,21.23-5.04,28.66-14.99l1.06-1.41l-15.27-10.14L564.24,121.65z M549.72,92.86
			c5.81,0,9.98,3.09,11.76,6.79l-28.46,11.89C531.8,102.34,540.52,92.86,549.72,92.86z"/>
	</g>
	<g>
		<g>
			<path class="st2" d="M407.45,167.91c0,0.62-0.17,1.2-0.51,1.74c-0.34,0.54-0.86,0.98-1.56,1.31c-0.7,0.33-1.55,0.49-2.55,0.49
				h-4.39v-11.88h4.28c0.95,0,1.74,0.14,2.37,0.42c0.63,0.28,1.09,0.65,1.39,1.11c0.29,0.46,0.44,0.94,0.44,1.45
				c0,0.58-0.17,1.11-0.51,1.57c-0.34,0.46-0.79,0.8-1.34,1c0.76,0.15,1.34,0.49,1.76,1C407.24,166.64,407.45,167.23,407.45,167.91z
				 M404.93,162.69c0-0.48-0.19-0.89-0.58-1.22c-0.38-0.33-0.93-0.5-1.63-0.5h-2.32v3.51h2.42c0.57,0,1.06-0.16,1.48-0.46
				C404.72,163.7,404.93,163.26,404.93,162.69z M405.44,167.91c0-0.61-0.22-1.11-0.66-1.48c-0.44-0.37-1.09-0.56-1.96-0.56h-2.42
				v4.18h2.42c0.89,0,1.55-0.19,1.98-0.58S405.44,168.57,405.44,167.91z"/>
			<path class="st2" d="M419.5,165.99c0,0.87-0.12,1.65-0.35,2.35c-0.24,0.69-0.59,1.29-1.06,1.79c-0.47,0.5-1.03,0.87-1.68,1.12
				c-0.65,0.25-1.39,0.38-2.23,0.38c-0.83,0-1.57-0.13-2.22-0.38c-0.65-0.25-1.21-0.62-1.67-1.11c-0.47-0.49-0.82-1.09-1.07-1.79
				c-0.25-0.7-0.37-1.49-0.37-2.36v-6.41h1.97v6.41c0,0.86,0.13,1.59,0.38,2.21s0.63,1.07,1.13,1.39c0.5,0.32,1.12,0.47,1.85,0.47
				s1.35-0.16,1.85-0.47c0.5-0.32,0.88-0.78,1.13-1.39s0.38-1.35,0.38-2.21v-6.41h1.97V165.99z"/>
			<path class="st2" d="M431.61,159.58l-4.49,7.6v4.28h-1.97v-4.28l-4.49-7.6h2.19l3.28,5.81l3.3-5.81H431.61z"/>
			<path class="st2" d="M447.87,168.43c0,1.02-0.35,1.8-1.06,2.36c-0.7,0.55-1.7,0.83-2.99,0.83c-0.41,0-0.85-0.04-1.3-0.11
				c-0.45-0.07-0.9-0.18-1.34-0.33c-0.44-0.14-0.83-0.32-1.18-0.52v-1.85c1.26,0.83,2.53,1.24,3.82,1.24c0.74,0,1.27-0.14,1.61-0.42
				c0.34-0.28,0.51-0.67,0.51-1.18c0-0.36-0.08-0.65-0.24-0.89c-0.16-0.24-0.5-0.5-1.01-0.79c-0.47-0.26-0.96-0.53-1.49-0.81
				c-0.53-0.29-0.97-0.52-1.31-0.71c-0.65-0.35-1.11-0.75-1.41-1.21c-0.29-0.45-0.44-0.96-0.44-1.53c0-0.96,0.36-1.72,1.09-2.28
				c0.72-0.56,1.68-0.83,2.88-0.83c0.5,0,0.95,0.04,1.36,0.12c0.41,0.08,0.78,0.19,1.12,0.33c0.34,0.14,0.68,0.31,1.02,0.52v1.84
				c-0.57-0.37-1.14-0.67-1.73-0.9c-0.58-0.23-1.17-0.35-1.77-0.35c-1.42,0-2.12,0.49-2.12,1.46c0,0.26,0.08,0.51,0.23,0.74
				c0.15,0.23,0.47,0.47,0.94,0.73c0.41,0.21,0.87,0.45,1.38,0.72c0.51,0.27,0.94,0.51,1.29,0.72c0.53,0.3,0.95,0.61,1.26,0.92
				c0.31,0.31,0.53,0.64,0.66,1C447.8,167.61,447.87,168.01,447.87,168.43z"/>
			<path class="st2" d="M456.61,171.46h-7.27v-11.88h7.27l-0.87,1.58h-4.43v3.06h4.6v1.6h-4.6v4.05h5.3V171.46z"/>
			<path class="st2" d="M464.81,171.46h-6.75v-11.88h1.97v10.3h4.78V171.46z"/>
			<path class="st2" d="M472.92,171.46h-6.75v-11.88h1.97v10.3h4.78V171.46z"/>
			<path class="st2" d="M489.07,171.46h-7.27v-11.88h7.27l-0.87,1.58h-4.43v3.06h4.6v1.6h-4.6v4.05h5.3V171.46z"/>
			<path class="st2" d="M501.1,171.46h-2.24l-3.33-4.45l-3.33,4.45h-2.25l4.47-5.94l-4.47-5.94h2.25l3.33,4.45l3.33-4.45h2.24
				l-4.44,5.94L501.1,171.46z"/>
			<path class="st2" d="M511.67,169.78c-0.4,0.39-0.83,0.72-1.3,0.99s-0.96,0.48-1.5,0.63c-0.53,0.15-1.1,0.22-1.71,0.22
				c-1.15,0-2.19-0.27-3.13-0.81c-0.94-0.54-1.67-1.29-2.2-2.22c-0.53-0.94-0.79-1.96-0.79-3.07c0-0.83,0.15-1.62,0.46-2.37
				c0.3-0.75,0.73-1.41,1.28-1.97c0.55-0.56,1.2-1,1.94-1.31c0.74-0.31,1.55-0.47,2.44-0.47c0.58,0,1.15,0.08,1.69,0.23
				c0.55,0.15,1.05,0.36,1.52,0.63s0.9,0.6,1.3,0.99l-1.42,1.26c-0.39-0.45-0.85-0.8-1.37-1.05c-0.52-0.25-1.09-0.38-1.73-0.38
				c-0.61,0-1.17,0.11-1.67,0.34c-0.5,0.23-0.93,0.55-1.3,0.97c-0.37,0.42-0.64,0.89-0.82,1.42c-0.18,0.53-0.28,1.09-0.28,1.69
				c0,0.79,0.17,1.53,0.5,2.22c0.33,0.68,0.81,1.22,1.42,1.62c0.61,0.4,1.33,0.59,2.15,0.59c0.63,0,1.21-0.13,1.73-0.38
				c0.52-0.25,0.97-0.6,1.37-1.05L511.67,169.78z"/>
			<path class="st2" d="M522.76,171.46h-1.97v-5.58h-5.99v5.58h-1.97v-11.88h1.97v4.71h5.99v-4.71h1.97V171.46z"/>
			<path class="st2" d="M535.63,171.46h-2.13l-1.31-2.92h-4.72l-1.31,2.92h-2.13l5.8-12.24L535.63,171.46z M531.6,167.19l-1.77-3.94
				l-1.74,3.94H531.6z"/>
			<path class="st2" d="M546.82,171.62l-7.96-7.82v7.65h-1.97V159.4l7.96,7.86v-7.69h1.97V171.62z"/>
			<path class="st2" d="M558.95,169.94c-0.38,0.34-0.79,0.63-1.21,0.88c-0.43,0.25-0.92,0.44-1.47,0.58
				c-0.56,0.14-1.16,0.21-1.82,0.21c-1.15,0-2.19-0.27-3.13-0.81c-0.94-0.54-1.67-1.29-2.2-2.22c-0.53-0.94-0.79-1.96-0.79-3.07
				c0-0.83,0.15-1.62,0.46-2.37c0.3-0.75,0.73-1.41,1.28-1.97c0.55-0.56,1.2-1,1.94-1.31c0.74-0.31,1.55-0.47,2.44-0.47
				c0.58,0,1.15,0.08,1.69,0.23c0.55,0.15,1.05,0.36,1.52,0.63c0.47,0.27,0.9,0.6,1.3,0.99l-1.42,1.26
				c-0.39-0.45-0.85-0.8-1.37-1.05c-0.52-0.25-1.09-0.38-1.73-0.38c-0.61,0-1.17,0.11-1.67,0.34c-0.5,0.23-0.93,0.55-1.3,0.97
				c-0.37,0.42-0.64,0.89-0.82,1.42c-0.18,0.53-0.28,1.09-0.28,1.69c0,0.79,0.17,1.53,0.5,2.22c0.33,0.68,0.81,1.22,1.42,1.62
				c0.61,0.4,1.33,0.59,2.15,0.59c1.01,0,1.86-0.25,2.54-0.75v-3.49h1.97V169.94z"/>
			<path class="st2" d="M568.17,171.46h-7.27v-11.88h7.27l-0.87,1.58h-4.43v3.06h4.6v1.6h-4.6v4.05h5.3V171.46z"/>
		</g>
	</g>
</g>
</svg>
