<svg width="24" height="26" viewBox="0 0 24 26" fill="none" xmlns="http://www.w3.org/2000/svg">
<path d="M19 9.97046C19 10.8897 18.8189 11.8 18.4672 12.6492C18.1154 13.4985 17.5998 14.2702 16.9497 14.9202C16.2997 15.5702 15.5281 16.0858 14.6788 16.4376C13.8295 16.7894 12.9193 16.9705 12 16.9705C11.0807 16.9705 10.1705 16.7894 9.32122 16.4376C8.47194 16.0858 7.70026 15.5702 7.05025 14.9202C6.40024 14.2702 5.88463 13.4985 5.53284 12.6492C5.18106 11.8 5 10.8897 5 9.97046C5 8.11394 5.7375 6.33347 7.05025 5.02071C8.36301 3.70796 10.1435 2.97046 12 2.97046C13.8565 2.97046 15.637 3.70796 16.9497 5.02071C18.2625 6.33347 19 8.11394 19 9.97046Z" fill="#4F46E5" fill-opacity="0.66"/>
<path d="M7.09286 16.9705L6.71386 18.3525C6.08586 20.6445 5.77186 21.7905 6.19086 22.4175C6.33786 22.6375 6.53486 22.8135 6.76386 22.9305C7.41586 23.2625 8.42386 22.7375 10.4389 21.6875C11.1089 21.3375 11.4449 21.1635 11.8009 21.1255C11.9331 21.1113 12.0666 21.1113 12.1989 21.1255C12.5549 21.1635 12.8899 21.3385 13.5609 21.6875C15.5759 22.7375 16.5839 23.2625 17.2359 22.9305C17.4649 22.8135 17.6619 22.6375 17.8089 22.4175C18.2289 21.7905 17.9139 20.6445 17.2859 18.3525L16.9069 16.9705C15.4729 17.9873 13.7578 18.5322 11.9999 18.5295C10.2419 18.5322 8.52682 17.9873 7.09286 16.9705Z" fill="#4F46E5" fill-opacity="0.66"/>
</svg>
