<svg xmlns="http://www.w3.org/2000/svg" viewBox="0 0 750 500"><g id="freepik--Floor--inject-17"><polygon points="360.31 374.43 347.59 416.05 402.48 416.05 385.2 374.43 360.31 374.43" style="fill:#e0e0e0"></polygon><polygon points="346.78 432.9 324.07 477.32 427.83 477.32 404.52 432.9 346.78 432.9" style="fill:#e0e0e0"></polygon><polygon points="78.74 462.18 55.27 462.46 194.66 287.54 204.8 287.54 78.74 462.18" style="fill:#e0e0e0"></polygon><polygon points="675.61 464.65 699.08 464.93 559.69 290 549.55 290 675.61 464.65" style="fill:#e0e0e0"></polygon><path d="M690.34,287.2c0,.14-141.45.26-315.9.26s-315.93-.12-315.93-.26,141.42-.26,315.93-.26S690.34,287.06,690.34,287.2Z" style="fill:#263238"></path></g><g id="freepik--Characters--inject-17"><path d="M464.44,304.52s-5-5-6.39,25.35c-1.35,28.66-3.32,70,3.57,87.71a9.45,9.45,0,0,0,3.81,4.64,16,16,0,0,0,6,2.16c6,.93,29.68.4,29.68.4s13.45,0,13.65-11.06c.17-9.11,0-28.91,0-28.91Z" style="fill:#263238"></path><path d="M464.44,304.52s-5-5-6.39,25.35c-1.35,28.66-3.32,70,3.57,87.71a9.45,9.45,0,0,0,3.81,4.64,16,16,0,0,0,6,2.16c6,.93,29.68.4,29.68.4s13.45,0,13.65-11.06c.17-9.11,0-28.91,0-28.91Z" style="opacity:0.30000000000000004"></path><path d="M532.08,325.08s5-5,6.39,25.35c1.35,28.66,3.32,70-3.57,87.71a9.37,9.37,0,0,1-3.82,4.64,15.86,15.86,0,0,1-6,2.16c-6,.93-29.68.41-29.68.41s-13.45,0-13.65-11.07c-.17-9.11,1-41,1-41Z" style="fill:#263238"></path><path d="M532.08,325.08s-.07.12-.22.34l-.67.95-2.64,3.71-10,14L483,393.39l.05-.12c-.36,10-.73,20.78-1,32.08-.05,2.82-.1,5.68-.07,8.56,0,.72.12,1.42.18,2.13a9.09,9.09,0,0,0,.25,1,5,5,0,0,0,.32,1,9.79,9.79,0,0,0,2.43,3.48,15.64,15.64,0,0,0,8,3.33,32.86,32.86,0,0,0,4.47.24l4.55.06c5.22.06,10.39.07,15.48-.05a69,69,0,0,0,7.53-.48,14.82,14.82,0,0,0,6.69-2.8,9.08,9.08,0,0,0,2.25-2.76,23.37,23.37,0,0,0,1.26-3.37,34.73,34.73,0,0,0,.95-3.46l.42-1.74c.12-.58.22-1.16.33-1.75A128.67,128.67,0,0,0,538.86,415c.66-9,.75-17.64.7-25.7s-.29-15.56-.54-22.41c-.59-13.69-.86-24.81-2.12-32.37-.62-3.76-1.33-6.71-2.4-8.42-.49-.86-1.19-1.35-1.71-1.29a1.39,1.39,0,0,0-.71.27.66.66,0,0,1,.15-.12,1.06,1.06,0,0,1,.55-.2c.55-.09,1.3.42,1.81,1.29,1.12,1.72,1.86,4.67,2.51,8.44,1.33,7.58,1.65,18.7,2.29,32.38.27,6.85.53,14.36.6,22.43s0,16.69-.65,25.74a128.09,128.09,0,0,1-1.71,13.84c-.11.58-.21,1.17-.33,1.76l-.42,1.75a33.63,33.63,0,0,1-1,3.5,24,24,0,0,1-1.29,3.45,9.83,9.83,0,0,1-2.37,2.92,15.35,15.35,0,0,1-6.94,2.91,71.29,71.29,0,0,1-7.6.49c-5.1.12-10.27.11-15.5,0l-4.55-.06a33,33,0,0,1-4.54-.25,16,16,0,0,1-8.25-3.45,10.31,10.31,0,0,1-2.57-3.67,5.79,5.79,0,0,1-.34-1.07c-.08-.36-.21-.72-.26-1.09-.06-.73-.18-1.47-.18-2.2,0-2.9,0-5.76.07-8.58.24-11.31.63-22.07,1-32.09v-.07l0-.06,35.68-49.24L528.44,330l2.69-3.66.7-.94C532,325.18,532.08,325.08,532.08,325.08Z" style="fill:#455a64"></path><path d="M285.05,297.86s5-5,6.4,25.35c1.35,28.66,3.32,70-3.57,87.71a9.46,9.46,0,0,1-3.82,4.64,15.94,15.94,0,0,1-6,2.15c-6,.94-29.69.41-29.69.41s-13.44,0-13.64-11.07c-.17-9.1,0-28.91,0-28.91Z" style="fill:#263238"></path><path d="M285.05,297.86s5-5,6.4,25.35c1.35,28.66,3.32,70-3.57,87.71a9.46,9.46,0,0,1-3.82,4.64,15.94,15.94,0,0,1-6,2.15c-6,.94-29.69.41-29.69.41s-13.44,0-13.64-11.07c-.17-9.1,0-28.91,0-28.91Z" style="opacity:0.30000000000000004"></path><path d="M217.42,318.42s-5-5-6.4,25.35c-1.34,28.66-3.31,70,3.57,87.71a9.51,9.51,0,0,0,3.82,4.64,15.92,15.92,0,0,0,6,2.16c6,.93,29.68.4,29.68.4s13.44,0,13.65-11.06c.17-9.11-1-41-1-41Z" style="fill:#263238"></path><path d="M217.42,318.42s.09.1.25.31l.69.93,2.69,3.67,10.12,13.89,35.68,49.24,0,.05v.07c.38,10,.76,20.79,1,32.09.06,2.83.11,5.69.08,8.59,0,.72-.12,1.47-.18,2.2a10,10,0,0,1-.27,1.08,5.53,5.53,0,0,1-.33,1.07,10.31,10.31,0,0,1-2.57,3.67,16.08,16.08,0,0,1-8.26,3.46,32.75,32.75,0,0,1-4.53.24l-4.55.07c-5.24.05-10.41.07-15.51-.05a71.3,71.3,0,0,1-7.6-.5,15.15,15.15,0,0,1-6.93-2.91,9.64,9.64,0,0,1-2.37-2.91,24.15,24.15,0,0,1-1.29-3.46,33.63,33.63,0,0,1-1-3.5l-.43-1.75c-.12-.58-.21-1.17-.32-1.76a127.6,127.6,0,0,1-1.71-13.83c-.65-9.06-.73-17.68-.66-25.75s.33-15.57.61-22.42c.64-13.69,1-24.81,2.29-32.39.65-3.77,1.39-6.72,2.51-8.44.51-.87,1.25-1.37,1.8-1.28a1.17,1.17,0,0,1,.56.19.53.53,0,0,1,.15.13,1.34,1.34,0,0,0-.71-.27c-.52-.07-1.22.42-1.71,1.29-1.08,1.71-1.79,4.65-2.4,8.41-1.27,7.57-1.53,18.68-2.12,32.37-.26,6.85-.49,14.36-.55,22.42s0,16.67.71,25.7a126.17,126.17,0,0,0,1.72,13.78c.11.58.2,1.17.32,1.75l.43,1.73a30.21,30.21,0,0,0,.95,3.47,23.08,23.08,0,0,0,1.26,3.37,9.08,9.08,0,0,0,2.25,2.76,14.61,14.61,0,0,0,6.69,2.79,69,69,0,0,0,7.53.49c5.08.12,10.25.1,15.48,0l4.55-.07a33,33,0,0,0,4.47-.23,15.68,15.68,0,0,0,8-3.33,9.79,9.79,0,0,0,2.43-3.48,5.16,5.16,0,0,0,.32-1,9.64,9.64,0,0,0,.25-1c.05-.72.17-1.41.17-2.13,0-2.88,0-5.74-.06-8.57-.23-11.29-.61-22.06-1-32.08l0,.13c-14.6-20.28-26.88-37.33-35.51-49.33l-10-14-2.63-3.71-.67-1C217.49,318.54,217.42,318.42,217.42,318.42Z" style="fill:#455a64"></path><path d="M538.84,225.57s-1.51,5.13-4.61,5.66-27.54,1.28-27.54,1.28l-2.39,4.92h-4.61l-3.35-19.72,2.86.59a3,3,0,0,1,2.18,1.78h0a3,3,0,0,0,2.48,1.82Z" style="fill:#263238"></path><path d="M537.81,226.33a3.17,3.17,0,0,0,2.89-3.59c-.8-5.64-3.76-16.59-14.64-18.21a75.26,75.26,0,0,0-20.31-.52c-1.69.22-2.53,1.75-2.73,3.45-.93,7.75-.18,17.35,2.06,18.53S529.87,227,537.81,226.33Z" style="fill:#C53F3F"></path><path d="M523.23,204.58a3.41,3.41,0,0,1,.64.77c.39.51.91,1.27,1.53,2.23a56.82,56.82,0,0,1,7.07,16.36c.28,1.11.48,2,.59,2.64a4,4,0,0,1,.12,1c-.08,0-.42-1.35-1.06-3.53a72.45,72.45,0,0,0-7-16.27C523.94,205.81,523.17,204.63,523.23,204.58Z" style="fill:#263238"></path><path d="M206.92,226.77s1.51,5.13,4.61,5.67,27.54,1.28,27.54,1.28l2.39,4.92h4.61l3.35-19.73-2.86.59a3.05,3.05,0,0,0-2.18,1.78h0a3,3,0,0,1-2.48,1.83Z" style="fill:#263238"></path><path d="M208,227.54a3.17,3.17,0,0,1-2.89-3.6c.8-5.63,3.76-16.58,14.64-18.2a74.41,74.41,0,0,1,20.31-.52c1.69.22,2.53,1.75,2.73,3.44.93,7.75.18,17.36-2.05,18.54S215.89,228.16,208,227.54Z" style="fill:#C53F3F"></path><path d="M222.53,205.79c.06,0-.71,1.23-1.85,3.19a72,72,0,0,0-7,16.26c-.65,2.18-1,3.55-1.07,3.54a3.8,3.8,0,0,1,.13-1c.1-.63.3-1.54.58-2.65a57.66,57.66,0,0,1,7.07-16.35c.62-1,1.14-1.73,1.53-2.24A3.48,3.48,0,0,1,222.53,205.79Z" style="fill:#263238"></path><path d="M377.45,141.91c11.07.22,56.67.43,69.84,0s18,2.53,24.33,10.17,20.31,43.07,28.38,72.36c10.13,16.11,19,32.55,23.64,43.94,0,0,16.64,20,17.49,27.67s-.85,54.35-5.1,67.51-7.22,16.56-23.78,21.23c0,0-73.13,11.28-130.21,10l-4.92.1c-58,2.64-137.85-10.09-137.85-10.09-16.56-4.67-19.53-8.06-23.78-21.23s-5.94-59.87-5.09-67.51,17.48-27.67,17.48-27.67c4.62-11.39,13.51-27.83,23.65-43.94,8.07-29.29,22-64.71,28.38-72.36s11.17-10.59,24.33-10.17,57.64.22,68.71,0Z" style="fill:#C53F3F"></path><path d="M459.08,146.41c0-.71-4.28-6.62-6.62-9.37s-3.26-2.65-5.3-2.44c-2.53.26-8.58,3.46-8.88,4.68a44.81,44.81,0,0,0-.48,5.2l4.07-.1s-.9-3.75.3-4.5c1.78-1.1,2.45-1.41,3.87-.8s3.26,5.5,3.26,5.5Z" style="fill:#e0e0e0"></path><path d="M293.32,142.06s-.06.06-.19.16l-.59.41a25.79,25.79,0,0,0-2.17,1.74,34.28,34.28,0,0,0-6.39,7.94c-.55.92-1.12,1.9-1.67,2.95s-1.07,2.15-1.64,3.29c-1.14,2.28-2.31,4.73-3.52,7.33-2.44,5.19-5.09,10.9-7.72,17a240.1,240.1,0,0,0-11.57,31.78c-1.14,4.17-1.92,7.59-2.42,10-.24,1.16-.43,2.07-.56,2.73l-.16.71a1,1,0,0,1-.07.24s0-.08,0-.25.06-.42.1-.71c.12-.68.27-1.6.47-2.76.44-2.38,1.17-5.82,2.27-10A221.87,221.87,0,0,1,269,182.64c2.64-6.07,5.31-11.79,7.76-17,1.23-2.59,2.41-5.05,3.57-7.32.58-1.14,1.14-2.24,1.67-3.3s1.15-2,1.72-2.94a33,33,0,0,1,6.56-7.9A15.9,15.9,0,0,1,293.32,142.06Z" style="fill:#263238"></path><path d="M373.86,157.76s-34.43,0-52.38.12c-12.32.09-40.3-1-41.79,2.1-.68,1.41-6.89,13.84-12.81,28.18-7.15,17.33-14,37.28-12.23,41.84l115.23-1.74H491.72s1.36-4.08-1.17-11.45-19.31-52.65-22.22-55.75S416.27,158.31,373.86,157.76Z" style="fill:#263238"></path><path d="M373.84,160.54s-33.07,0-50.3.11c-11.83.09-36.83-.11-40.3,3.54-1.57,1.67-16.27,30.54-22,48-2.46,7.51,4.81,13.56,12.71,13.69H487s1.31-3.78-1.12-10.61-18.46-46.92-21.55-49.48C459.08,161.44,414.56,161.05,373.84,160.54Z" style="fill:#455a64"></path><path d="M267.13,224.27S277,209.38,283,208.66c2.61-.31,24.48-.6,52-.86a3.84,3.84,0,0,1,3,1.42h0a4,4,0,0,1,3.08-1.47c19.92-.17,42.17-.32,62-.44a3.26,3.26,0,0,1,2.26.9h0l0,0a3.23,3.23,0,0,1,2.23-.9c28.86-.17,51.54-.25,52.45-.23,5,.17,27,19.08,27,19.08l-213.8-.25A16.47,16.47,0,0,1,267.13,224.27Z" style="opacity:0.30000000000000004"></path><path d="M298.15,275s-7.92,0-7.42,9.65c.28,5.31-1.82,31.55,16.67,35.25s138,1.28,138,1.28,9-.41,11.34-13.78l1.5-23.16s-.65-6.18-5.66-7S298.15,275,298.15,275Z" style="fill:#e0e0e0"></path><path d="M298.15,275s.28,0,.82,0h2.39l9.27.05,34.46.3,52,.59,31.2.45,16.64.34,4.27.13c.71,0,1.43.06,2.15.11l1.09.06a8.51,8.51,0,0,1,1.09.24A6.42,6.42,0,0,1,457,280a10.75,10.75,0,0,1,1.49,4.19v0c-.47,7.38-1,15.2-1.49,23.16h0v0a26.56,26.56,0,0,1-1.9,6.19A14.88,14.88,0,0,1,451,319a11.63,11.63,0,0,1-4.71,2.32,14.63,14.63,0,0,1-2.62.16l-2.56.05-10.18.17L411,322c-13,.14-25.62.24-37.61.24s-23.38,0-34-.28c-2.67,0-5.29-.12-7.86-.19s-5.1-.14-7.57-.27-4.89-.18-7.26-.39-4.69-.29-6.94-.66a20,20,0,0,1-6.44-1.65,16.88,16.88,0,0,1-5.16-3.66,24.49,24.49,0,0,1-5.49-10.1,48,48,0,0,1-1.72-9.9c-.26-3.08-.27-5.9-.27-8.44,0-1.26,0-2.45,0-3.59.05-.56.13-1.11.19-1.63a14.21,14.21,0,0,1,.41-1.47,7.36,7.36,0,0,1,3-3.83,8,8,0,0,1,2.85-1,4.45,4.45,0,0,1,1-.09,7.08,7.08,0,0,0-1,.14,8.35,8.35,0,0,0-2.8,1.08,7.28,7.28,0,0,0-2.95,3.79,14.58,14.58,0,0,0-.38,1.45c-.06.52-.14,1-.18,1.61,0,1.11,0,2.31.05,3.58,0,2.54,0,5.35.3,8.42a48.83,48.83,0,0,0,1.76,9.84,24.15,24.15,0,0,0,5.45,9.95,16.72,16.72,0,0,0,5.06,3.57,19.58,19.58,0,0,0,6.35,1.6c2.23.37,4.55.46,6.91.65s4.79.24,7.26.37,5,.19,7.56.25,5.19.16,7.85.18c10.66.21,22.05.23,34,.23s24.56-.12,37.61-.27l19.89-.27,10.18-.17,2.56,0a13.83,13.83,0,0,0,2.52-.15,11.12,11.12,0,0,0,4.49-2.21,14.33,14.33,0,0,0,3.94-5.17,26.76,26.76,0,0,0,1.86-6.06v0c.52-7.95,1-15.78,1.5-23.16v.05a10.21,10.21,0,0,0-1.41-4,6,6,0,0,0-3.16-2.56c-.34-.07-.67-.18-1-.22l-1.06-.06c-.7,0-1.41-.09-2.12-.11l-4.26-.13-16.64-.35-31.19-.49-52-.7-34.46-.46-9.27-.13-2.39-.05Z" style="fill:#263238"></path><path d="M303.18,280.79s-7.42,0-6.73,7.13c.37,3.86-1.82,22.89,15.27,25.59s122,1.64,122,1.64,13.13-.63,15.93-9.73l1.47-17.9s.49-3.84-4.15-4.42S303.18,280.79,303.18,280.79Z" style="fill:#263238"></path><path d="M436,280.79c-.21.52-3.82,36.61-3.82,36.61h6.05l4.56-36.61Z" style="fill:#e0e0e0"></path><path d="M415.83,280.76c-.18.54-1.33,36.79-1.33,36.79l6-.41,2.07-36.84Z" style="fill:#e0e0e0"></path><path d="M397.34,280.94c-.18.53-1.33,36.79-1.33,36.79l7.11-.48,1-36.77Z" style="fill:#e0e0e0"></path><path d="M312.41,279.32c.21.53,3.82,36.62,3.82,36.62h-6.05l-4.57-36.62Z" style="fill:#e0e0e0"></path><path d="M332.57,279.29c.17.54,1.33,36.79,1.33,36.79l-6-.41-2.07-36.84Z" style="fill:#e0e0e0"></path><path d="M351.05,279.47c.18.54,1.33,36.79,1.33,36.79l-7.11-.48-1-36.77Z" style="fill:#e0e0e0"></path><path d="M353.4,280.3c.69,1.16,13.55,9.94,13.55,9.94h15.62l12.33-9.94Z" style="fill:#e0e0e0"></path><polygon points="365.21 285.27 368.51 316.28 380.14 316.28 383.44 285.27 365.21 285.27" style="fill:#e0e0e0"></polygon><path d="M305.59,346.26a4.13,4.13,0,0,0-4.17,4.43c.52,7.13,1.89,20.5,4.9,22.94,4.14,3.37,123,6.87,134.22.16,5.13-3.06,6.51-15.53,6.88-22a3.83,3.83,0,0,0-3.78-4Z" style="fill:#455a64"></path><path d="M305.59,346.26a3.36,3.36,0,0,1,.86-.07l2.53-.05,9.71,0,35.72.13,53,.39,31.28.29,4.08,0c.36,0,.66,0,1.06,0a4.6,4.6,0,0,1,1.21.22,4.63,4.63,0,0,1,3.11,3.57,5,5,0,0,1,.05,1.21l-.06,1.05c-.11,1.4-.23,2.8-.4,4.2a56.47,56.47,0,0,1-1.56,8.43,26.63,26.63,0,0,1-1.49,4.14,12.09,12.09,0,0,1-2.56,3.79,7.14,7.14,0,0,1-2,1.31,14,14,0,0,1-2.15.68,41.23,41.23,0,0,1-4.28.81c-2.84.42-5.67.68-8.47.9-5.61.43-11.14.65-16.57.81-10.86.3-21.34.31-31.31.2-19.95-.23-37.91-.89-53-1.9-3.76-.26-7.35-.55-10.73-.92-1.7-.19-3.34-.39-4.94-.68-.4-.06-.8-.15-1.19-.24a5.39,5.39,0,0,1-1.23-.44,5,5,0,0,1-1.51-2,21,21,0,0,1-1.37-4.2c-.34-1.37-.57-2.69-.79-4-.41-2.55-.67-4.88-.88-7s-.34-4-.44-5.6a5.15,5.15,0,0,1,.19-2.3,4.24,4.24,0,0,1,1-1.63,4.15,4.15,0,0,1,2.28-1.17,3.19,3.19,0,0,1,.65,0c.15,0,.22,0,.22,0s-.29,0-.84.16a4.09,4.09,0,0,0-2.08,1.23,4.21,4.21,0,0,0-1,3.67c.15,1.62.33,3.48.58,5.57s.57,4.41,1,6.92c.23,1.26.49,2.56.83,3.9a21.84,21.84,0,0,0,1.37,4,4.6,4.6,0,0,0,1.19,1.61,9.33,9.33,0,0,0,2.13.53c1.55.26,3.19.45,4.87.61,3.37.33,6.95.58,10.7.81,15,.87,33,1.41,52.92,1.56,10,.07,20.43,0,31.26-.29,5.41-.17,10.92-.4,16.49-.83,2.78-.22,5.58-.48,8.36-.89,1.39-.2,2.78-.45,4.12-.78a12.57,12.57,0,0,0,1.94-.61,5.32,5.32,0,0,0,1.56-1,10.53,10.53,0,0,0,2.22-3.3,25.82,25.82,0,0,0,1.4-3.9,57,57,0,0,0,1.52-8.19c.17-1.38.29-2.76.39-4.13l.07-1a4,4,0,0,0,0-.86,3,3,0,0,0-.71-1.47,3.1,3.1,0,0,0-1.35-.9,3.82,3.82,0,0,0-.81-.14l-1,0-4.09,0-31.28-.38-53-.73-35.71-.63-9.71-.25-2.53-.1A3.2,3.2,0,0,1,305.59,346.26Z" style="fill:#263238"></path><path d="M538.25,312.35s-.21.2-.64.56l-1.93,1.63c-.84.72-2,1.45-3.3,2.41-.65.48-1.43.88-2.22,1.38s-1.64,1-2.59,1.46a66.54,66.54,0,0,1-14.26,5.51,124.68,124.68,0,0,1-20,3.42c-7.48.71-15.7,1-24.52,1.35s-18.25.63-28.17.87c-19.84.5-41.67.76-64.57.68s-44.75-.52-64.59-1.17-37.71-1.8-52.58-3.94a230.08,230.08,0,0,1-34.76-7.44l-5.31-1.72c-1.54-.49-2.81-1-3.85-1.37l-2.36-.88c-.53-.19-.79-.31-.79-.31l.81.27,2.37.82c1.05.35,2.33.85,3.87,1.33l5.32,1.67A235.82,235.82,0,0,0,259,326.14c14.86,2.09,32.71,3.23,52.55,3.83s41.66,1,64.57,1.13,44.72-.16,64.56-.64c9.92-.22,19.34-.52,28.16-.83s17-.59,24.51-1.28A124.78,124.78,0,0,0,513.23,325a67.16,67.16,0,0,0,14.25-5.41,29.53,29.53,0,0,0,2.59-1.44c.79-.48,1.57-.87,2.22-1.35,1.31-.94,2.48-1.66,3.33-2.37l2-1.58C538,312.52,538.25,312.35,538.25,312.35Z" style="fill:#263238"></path><path d="M297.62,314.79a5.32,5.32,0,0,1-.83,0l-2.38,0c-2.07,0-5.06-.15-8.76-.37s-8.08-.59-12.94-1.13S262.52,312,257,311s-10.83-2.08-15.59-3.19-9-2.26-12.57-3.3-6.41-1.93-8.37-2.59l-2.26-.78a4.36,4.36,0,0,1-.77-.3,7.31,7.31,0,0,1,.81.21l2.28.67c2,.61,4.84,1.45,8.41,2.44s7.82,2.08,12.57,3.18,10,2.17,15.58,3.15,10.87,1.69,15.72,2.28,9.23,1,12.92,1.23,6.67.45,8.73.54l2.38.13A4.25,4.25,0,0,1,297.62,314.79Z" style="fill:#263238"></path><path d="M239,258.11a2.46,2.46,0,0,0-3,1.11c-1.73,3.11-5,9.84-5.5,17.2-.7,10.09,0,28.42,0,28.42s35.8,8.34,50.6,8.57c0,0-4.58-25.49-8.34-35.11C269.53,270.11,246,260.73,239,258.11Z" style="fill:#f5f5f5"></path><path d="M239,258.11a2.9,2.9,0,0,1,.36.12l1.06.37c.93.34,2.29.86,4,1.56a152.1,152.1,0,0,1,14.61,6.7,59.46,59.46,0,0,1,9.44,6.05,15.76,15.76,0,0,1,4.18,4.74,53.76,53.76,0,0,1,2.14,6.35c1.27,4.41,2.36,9.11,3.44,14s2.1,10,3.08,15.34l.05.31h-.31a110.67,110.67,0,0,1-12.66-1.22c-6.91-1-13.58-2.24-19.94-3.5s-12.41-2.58-18.05-3.88l-.18,0v-.18c-.25-7.44-.34-14.29-.25-20.39,0-3,.14-5.91.36-8.55a36.26,36.26,0,0,1,1.43-7.16,48.8,48.8,0,0,1,4.05-9.43,2.49,2.49,0,0,1,2.23-1.4,1.93,1.93,0,0,1,.92.19,3.45,3.45,0,0,0-.91-.11,2.42,2.42,0,0,0-2.11,1.39,50.44,50.44,0,0,0-3.91,9.44,35.49,35.49,0,0,0-1.36,7.11c-.2,2.63-.27,5.48-.31,8.53-.06,6.08.06,12.93.33,20.36l-.18-.22c5.63,1.29,11.68,2.58,18,3.84s13,2.5,19.91,3.48a108.3,108.3,0,0,0,12.6,1.22l-.26.3c-1-5.29-2-10.41-3.05-15.32s-2.15-9.61-3.4-14a52.52,52.52,0,0,0-2.09-6.28,15.56,15.56,0,0,0-4-4.62,59.69,59.69,0,0,0-9.34-6.06c-6-3.23-11-5.36-14.52-6.83l-4-1.64-1-.42Z" style="fill:#263238"></path><path d="M255.25,227.51a7.65,7.65,0,0,1-.78,1.23l-2.23,3.3c-1.87,2.79-4.34,6.71-7,11.11s-4.89,8.45-6.55,11.38l-2,3.45a9.14,9.14,0,0,1-.79,1.24,8,8,0,0,1,.61-1.34c.42-.84,1-2,1.83-3.53,1.58-3,3.81-7,6.43-11.46s5.15-8.32,7.1-11.06c1-1.38,1.78-2.47,2.36-3.21A8,8,0,0,1,255.25,227.51Z" style="fill:#263238"></path><path d="M292.78,276.61a1.74,1.74,0,0,1-.27-.42c-.19-.33-.42-.75-.69-1.25s-.65-1.22-1-2-.8-1.71-1.2-2.75a68.71,68.71,0,0,1-2.5-7.39c-.77-2.83-1.49-6-2.05-9.33s-.89-6.56-1.11-9.49-.29-5.57-.26-7.79c0-1.11,0-2.11.06-3s.07-1.64.12-2.26.08-1,.12-1.42a1.82,1.82,0,0,1,.07-.5,1.61,1.61,0,0,1,0,.5c0,.39,0,.86,0,1.43s0,1.37,0,2.25,0,1.88,0,3c0,2.21.16,4.84.36,7.76s.62,6.11,1.16,9.44,1.25,6.46,2,9.29S289.14,268,290,270c.37,1,.77,1.95,1.12,2.76s.64,1.5.92,2.05l.6,1.3C292.74,276.44,292.8,276.6,292.78,276.61Z" style="fill:#263238"></path><path d="M226.45,301.05s-4.06,9.34,21.16,14.95c25.53,5.68,45.17,8.3,45.17,8.3l-10-10.12s-52-7.68-52.21-10c-.81-9-.38-23.29-.38-23.29Z" style="opacity:0.30000000000000004"></path><circle cx="244.29" cy="276.89" r="8.51" style="fill:#f5f5f5"></circle><path d="M252.8,276.89a20.47,20.47,0,0,0-.37-2.05,8.43,8.43,0,0,0-3.11-4.57,8.29,8.29,0,0,0-3.5-1.53,8.4,8.4,0,0,0-4.35.38,8,8,0,0,0-2.09,1.13,8.12,8.12,0,0,0-1.75,1.76,8.24,8.24,0,0,0,0,9.76,7.9,7.9,0,0,0,1.75,1.76,7.46,7.46,0,0,0,2.09,1.13,8.31,8.31,0,0,0,7.86-1.15,8.41,8.41,0,0,0,3.1-4.56,20.3,20.3,0,0,0,.37-2.06,2.33,2.33,0,0,1,0,.55,6.64,6.64,0,0,1-.19,1.56,8.45,8.45,0,0,1-3.08,4.81,8.63,8.63,0,0,1-8.25,1.3,8.2,8.2,0,0,1-2.22-1.18,8.37,8.37,0,0,1-1.86-1.85,8.72,8.72,0,0,1,0-10.37,8.7,8.7,0,0,1,4.08-3,8.67,8.67,0,0,1,8.25,1.31,8.42,8.42,0,0,1,3.08,4.81,6.64,6.64,0,0,1,.19,1.56A2.21,2.21,0,0,1,252.8,276.89Z" style="fill:#263238"></path><path d="M244.29,276.52a8.28,8.28,0,0,1,7.25,4.3,8.28,8.28,0,1,0-14.51,0A8.28,8.28,0,0,1,244.29,276.52Z" style="fill:#e0e0e0"></path><circle cx="244.29" cy="276.61" r="3.67" style="fill:#fff"></circle><path d="M248,276.61s0-.32-.21-.87a3.69,3.69,0,0,0-1.35-1.9,3.49,3.49,0,0,0-3.27-.45,3.44,3.44,0,1,0,3.27,6,3.65,3.65,0,0,0,1.35-1.9c.16-.54.17-.87.21-.87a1.66,1.66,0,0,1,0,.92,3.71,3.71,0,0,1-1.32,2.15,3.83,3.83,0,0,1-3.67.6,3.89,3.89,0,1,1,3.67-6.73,3.67,3.67,0,0,1,1.32,2.14A1.65,1.65,0,0,1,248,276.61Z" style="fill:#263238"></path><path d="M247.5,270.85c-.19.32-1,.17-2.13.15a7.54,7.54,0,0,0-7,3.75c-.63.95-.94,1.7-1.32,1.68s-.7-.89-.4-2.35a6.91,6.91,0,0,1,9.15-4.87C247.15,269.77,247.68,270.57,247.5,270.85Z" style="fill:#fff"></path><path d="M261.27,295.47a12.52,12.52,0,0,1,11,6.49,12.52,12.52,0,1,0-21.93,0A12.52,12.52,0,0,1,261.27,295.47Z" style="fill:#e0e0e0"></path><path d="M266.66,295.53a5.4,5.4,0,1,1-5.39-5.39A5.39,5.39,0,0,1,266.66,295.53Z" style="fill:#fff"></path><path d="M266.66,295.53c-.05,0,0-.48-.27-1.29a5.35,5.35,0,0,0-2-2.85,5.17,5.17,0,1,0,0,8.28,5.35,5.35,0,0,0,2-2.85c.23-.81.22-1.29.27-1.29s0,.12,0,.34a4.14,4.14,0,0,1-.1,1,5.34,5.34,0,0,1-1.95,3.09,5.58,5.58,0,0,1-7.92-1.09,5.58,5.58,0,0,1,0-6.68,5.58,5.58,0,0,1,7.92-1.09,5.34,5.34,0,0,1,1.95,3.09,4,4,0,0,1,.1,1C266.69,295.41,266.68,295.53,266.66,295.53Z" style="fill:#263238"></path><path d="M273.78,295.94a24.34,24.34,0,0,0-.49-3,12.47,12.47,0,0,0-4.57-6.77,12.21,12.21,0,0,0-5.18-2.28,12.42,12.42,0,0,0-6.45.55,12.29,12.29,0,0,0-5.69,4.28,12.18,12.18,0,0,0,0,14.49,11.42,11.42,0,0,0,2.58,2.61,11.72,11.72,0,0,0,3.11,1.67,12.23,12.23,0,0,0,11.63-1.72,12.5,12.5,0,0,0,4.57-6.77,25,25,0,0,0,.49-3,4.4,4.4,0,0,1,0,.8,6.11,6.11,0,0,1-.07,1,8.58,8.58,0,0,1-.24,1.31,12.44,12.44,0,0,1-4.53,7,12.62,12.62,0,0,1-12,1.88,11.58,11.58,0,0,1-3.23-1.72,12.22,12.22,0,0,1-2.71-2.71,12.68,12.68,0,0,1,0-15.09,12.88,12.88,0,0,1,5.94-4.43,12.69,12.69,0,0,1,6.69-.52,12.55,12.55,0,0,1,5.34,2.41,12.41,12.41,0,0,1,4.53,7,8.36,8.36,0,0,1,.24,1.31,6,6,0,0,1,.07,1A4.47,4.47,0,0,1,273.78,295.94Z" style="fill:#263238"></path><path d="M266,287.06c-.2.33-1.31-.05-3-.2a10.62,10.62,0,0,0-10.83,5.77c-.84,1.52-1.14,2.65-1.53,2.63s-.7-1.27-.19-3.29a10.13,10.13,0,0,1,13-6.91C265.32,285.76,266.17,286.79,266,287.06Z" style="fill:#fff"></path><path d="M269.12,289c-.59.41-1.16.62-1.29.5s.08-.69.47-1.3,1-.89,1.35-.56S269.71,288.64,269.12,289Z" style="fill:#fff"></path><path d="M249.85,258.71c-.77,0,24,8.52,27.23,11.2l5.06-1.1-17.7-29.35-2-.47S256.33,258.75,249.85,258.71Z" style="fill:#fff;opacity:0.30000000000000004"></path><path d="M453.74,315.54a4.87,4.87,0,0,1,.78-.08l2.26-.12c2-.08,4.79-.23,8.28-.44,7-.44,16.63-1.26,27.18-2.93A252.48,252.48,0,0,0,519,306.15c3.37-.94,6.1-1.73,8-2.31l2.16-.64a5.69,5.69,0,0,1,.77-.19,4.14,4.14,0,0,1-.74.29L527,304c-1.86.63-4.56,1.48-7.93,2.46a224.41,224.41,0,0,1-26.73,6,255,255,0,0,1-27.24,2.78c-3.5.17-6.34.26-8.3.29l-2.25,0A4,4,0,0,1,453.74,315.54Z" style="fill:#263238"></path><path d="M508.26,260.24a2.45,2.45,0,0,1,3,1.11c1.73,3.11,5,9.84,5.5,17.2.71,10.1,0,28.42,0,28.42s-35.79,8.34-50.6,8.57c0,0,4.59-25.49,8.35-35.11C477.7,272.24,501.29,262.86,508.26,260.24Z" style="fill:#f5f5f5"></path><path d="M508.26,260.24a1.68,1.68,0,0,1-.35.16l-1,.42-4,1.64c-3.46,1.47-8.51,3.61-14.51,6.83a60.48,60.48,0,0,0-9.35,6.06,15.53,15.53,0,0,0-4,4.62,52.1,52.1,0,0,0-2.1,6.29c-1.24,4.39-2.33,9.09-3.39,14s-2.08,10-3.05,15.33l-.26-.31a106.16,106.16,0,0,0,12.6-1.22c6.89-1,13.55-2.22,19.91-3.48s12.41-2.55,18-3.84l-.18.22c.27-7.43.38-14.28.33-20.36,0-3.05-.11-5.9-.31-8.53a34.77,34.77,0,0,0-1.37-7.11,49.11,49.11,0,0,0-3.91-9.44,2.41,2.41,0,0,0-2.1-1.39,3.35,3.35,0,0,0-.91.11,1.85,1.85,0,0,1,.91-.19,2.5,2.5,0,0,1,2.23,1.4,47.57,47.57,0,0,1,4.05,9.43,35.68,35.68,0,0,1,1.44,7.16c.22,2.65.3,5.5.35,8.55.1,6.1,0,13-.24,20.39v.18l-.17,0c-5.64,1.3-11.69,2.61-18.05,3.88s-13,2.51-19.94,3.5a108.67,108.67,0,0,1-12.66,1.22h-.32l.06-.31q1.47-8,3.08-15.34c1.07-4.91,2.17-9.61,3.43-14a52,52,0,0,1,2.15-6.35,15.85,15.85,0,0,1,4.17-4.74,59.52,59.52,0,0,1,9.45-6.05,154.68,154.68,0,0,1,14.6-6.7c1.75-.7,3.12-1.21,4-1.56l1.06-.37Z" style="fill:#263238"></path><path d="M491.45,227.62a8.53,8.53,0,0,1,1,1.19c.61.78,1.46,1.94,2.46,3.41,2,2.92,4.58,7.09,7.24,11.8s4.94,9,6.58,12.19l1.9,3.73a8,8,0,0,1,.64,1.41,9.22,9.22,0,0,1-.81-1.31l-2.06-3.66c-1.71-3.1-4.05-7.4-6.7-12.1s-5.18-8.89-7.1-11.86c-.95-1.49-1.76-2.68-2.31-3.49A8.23,8.23,0,0,1,491.45,227.62Z" style="fill:#263238"></path><path d="M454.45,278.74a2.29,2.29,0,0,1,.2-.49c.17-.37.38-.83.64-1.38s.61-1.33,1-2.2c.19-.43.38-.9.58-1.38s.38-1,.58-1.58c.84-2.2,1.64-4.9,2.45-7.9s1.49-6.38,2.1-9.92a137.28,137.28,0,0,0,1.76-18.33c0-1.18.06-2.25,0-3.19s0-1.74,0-2.4,0-1.11,0-1.52a2.4,2.4,0,0,1,0-.53,1.62,1.62,0,0,1,.08.52c0,.41.07.91.12,1.52s.08,1.47.1,2.41.05,2,0,3.19A119.3,119.3,0,0,1,462.47,254c-.61,3.57-1.35,6.93-2.14,10a82.36,82.36,0,0,1-2.57,7.91l-.62,1.57-.62,1.38c-.38.86-.72,1.59-1,2.17s-.54,1-.73,1.34S454.47,278.75,454.45,278.74Z" style="fill:#263238"></path><path d="M520.79,304.3s4.06,9.34-21.16,14.95c-25.53,5.68-45.18,8.3-45.18,8.3L464.6,316.4s52-6,52.17-10.53c.37-9,.31-21.68.31-21.68Z" style="opacity:0.30000000000000004"></path><circle cx="502.95" cy="279.02" r="8.51" transform="translate(-49.99 437.36) rotate(-45)" style="fill:#f5f5f5"></circle><path d="M494.44,279a1.85,1.85,0,0,1,0-.54,6.77,6.77,0,0,1,.2-1.56,8.45,8.45,0,0,1,3.08-4.81,8.59,8.59,0,0,1,3.65-1.66,8.77,8.77,0,0,1,4.59.35,8.09,8.09,0,0,1,2.22,1.19,8,8,0,0,1,1.86,1.85,8.72,8.72,0,0,1,0,10.37,8.88,8.88,0,0,1-4.08,3,8.77,8.77,0,0,1-4.59.35,8.59,8.59,0,0,1-3.65-1.66,8.45,8.45,0,0,1-3.08-4.81,6.77,6.77,0,0,1-.2-1.56,2,2,0,0,1,0-.55c.06,0,0,.76.36,2.06a8.49,8.49,0,0,0,3.11,4.56,8.14,8.14,0,0,0,3.51,1.53,8.31,8.31,0,0,0,4.35-.38,7.6,7.6,0,0,0,2.09-1.13,7.86,7.86,0,0,0,1.74-1.76,8.24,8.24,0,0,0,0-9.76,7.81,7.81,0,0,0-1.74-1.75,7.91,7.91,0,0,0-2.09-1.14,8.31,8.31,0,0,0-7.86,1.15A8.54,8.54,0,0,0,494.8,277C494.46,278.27,494.5,279,494.44,279Z" style="fill:#263238"></path><path d="M503,278.66A8.26,8.26,0,0,0,495.7,283a8.28,8.28,0,1,1,15.53-4,8.14,8.14,0,0,1-1,4A8.25,8.25,0,0,0,503,278.66Z" style="fill:#e0e0e0"></path><path d="M499.28,278.74a3.67,3.67,0,1,0,3.67-3.66A3.67,3.67,0,0,0,499.28,278.74Z" style="fill:#fff"></path><path d="M499.28,278.74a1.85,1.85,0,0,1,0-.92,3.67,3.67,0,0,1,1.32-2.14,3.84,3.84,0,0,1,3.66-.61,3.9,3.9,0,0,1,0,7.35,3.84,3.84,0,0,1-3.66-.61,3.7,3.7,0,0,1-1.32-2.14,1.92,1.92,0,0,1,0-.93c.05,0,.05.33.21.88a3.69,3.69,0,0,0,1.35,1.89,3.45,3.45,0,1,0,0-5.54,3.75,3.75,0,0,0-1.35,1.9A8.43,8.43,0,0,1,499.28,278.74Z" style="fill:#263238"></path><path d="M499.74,273c-.18-.28.35-1.08,1.72-1.64a6.92,6.92,0,0,1,9.16,4.87c.29,1.46-.07,2.35-.41,2.35s-.69-.73-1.31-1.68a8.41,8.41,0,0,0-3-2.87,8.3,8.3,0,0,0-4.05-.88C500.73,273.15,499.93,273.31,499.74,273Z" style="fill:#fff"></path><path d="M486,297.61a12.49,12.49,0,0,0-11,6.48,12.36,12.36,0,0,1-1.55-6,12.51,12.51,0,1,1,23.48,6A12.52,12.52,0,0,0,486,297.61Z" style="fill:#e0e0e0"></path><path d="M480.58,297.66a5.39,5.39,0,1,0,5.39-5.39A5.39,5.39,0,0,0,480.58,297.66Z" style="fill:#fff"></path><path d="M480.58,297.66s0-.12,0-.35a4.14,4.14,0,0,1,.11-1,5.34,5.34,0,0,1,2-3.09,5.53,5.53,0,0,1,5.29-.86,5.61,5.61,0,1,1-5.29,9.72,5.34,5.34,0,0,1-2-3.09,4.24,4.24,0,0,1-.11-1c0-.23,0-.35,0-.35s0,.48.27,1.29a5.35,5.35,0,0,0,2,2.85,5.17,5.17,0,1,0,0-8.28,5.35,5.35,0,0,0-2,2.85C480.62,297.18,480.63,297.66,480.58,297.66Z" style="fill:#263238"></path><path d="M473.46,298.07a4.47,4.47,0,0,1,0-.8,6.11,6.11,0,0,1,.07-1,9.56,9.56,0,0,1,.23-1.31,12.61,12.61,0,0,1,9.87-9.42,12.79,12.79,0,0,1,6.69.52,12.75,12.75,0,0,1,5.94,4.43,12.68,12.68,0,0,1,0,15.09,12.68,12.68,0,0,1-5.94,4.44,12.79,12.79,0,0,1-6.69.52,12.61,12.61,0,0,1-9.87-9.42,9.56,9.56,0,0,1-.23-1.31,6.11,6.11,0,0,1-.07-1,4.4,4.4,0,0,1,0-.8,22.67,22.67,0,0,0,.49,3,12.34,12.34,0,0,0,16.2,8.49,11.24,11.24,0,0,0,3.1-1.67,11.46,11.46,0,0,0,2.59-2.61,12.2,12.2,0,0,0,0-14.48,12.35,12.35,0,0,0-5.69-4.29A12.39,12.39,0,0,0,474,295,22.4,22.4,0,0,0,473.46,298.07Z" style="fill:#263238"></path><path d="M481.25,289.19c-.18-.27.66-1.29,2.63-2a10.11,10.11,0,0,1,12.95,6.91c.52,2,.14,3.29-.19,3.29s-.69-1.11-1.52-2.63a11.57,11.57,0,0,0-4.5-4.61,11.43,11.43,0,0,0-6.34-1.16C482.55,289.14,481.44,289.52,481.25,289.19Z" style="fill:#fff"></path><path d="M478.12,291.17c-.6-.4-.86-1-.53-1.36s1,0,1.35.56.59,1.18.46,1.3S478.71,291.58,478.12,291.17Z" style="fill:#fff"></path><path d="M497.39,260.84c.77,0-24,8.52-27.23,11.21l-5.07-1.11,17.7-29.35,2-.47S490.9,260.88,497.39,260.84Z" style="fill:#fff;opacity:0.30000000000000004"></path><path d="M292.78,252.41s3.85-1.31,3.1-4.2a55.24,55.24,0,0,0,26.35,6.31c15.19-.23,70.85,3.18,70.85,3.18l6.38,8.81s-100.61-.41-104.11,1.87Z" style="fill:#fff;opacity:0.30000000000000004"></path><path d="M472.39,363.29v-19.4l51.74-5.7s-2.59,15.78-8.54,18.37S472.39,363.29,472.39,363.29Z" style="opacity:0.30000000000000004"></path><path d="M521.31,338.5s-2.64,10.05-4.66,12.92c-1.85,2.62-3.74,3.46-9.54,4.58-4.72.92-8.85,1.31-8.85,1.31l1.27-16.41Z" style="fill:#fff"></path><path d="M518.54,347.78a2.46,2.46,0,0,1-.1.5,9,9,0,0,1-.53,1.35,10.57,10.57,0,0,1-3.43,4.06c-1.86,1.38-4.54,2.08-7.46,2.56s-6.15.85-9.54,1.3c-6.77.88-12.91,1.65-17.35,2.18l-5.27.6-1.44.14a1.89,1.89,0,0,1-.5,0,1.64,1.64,0,0,1,.49-.12l1.42-.23,5.25-.77c4.43-.62,10.56-1.44,17.33-2.32,3.38-.45,6.62-.82,9.54-1.26s5.51-1.11,7.32-2.39a11,11,0,0,0,3.46-3.85C518.32,348.45,518.48,347.77,518.54,347.78Z" style="fill:#263238"></path><path d="M279,366.13V346.72L227.22,341s2.59,15.78,8.54,18.37S279,366.13,279,366.13Z" style="opacity:0.30000000000000004"></path><path d="M230.05,341.34s2.63,10.05,4.65,12.92c1.85,2.62,3.74,3.46,9.54,4.58,4.72.91,8.85,1.31,8.85,1.31l-1.27-16.41Z" style="fill:#fff"></path><path d="M232.81,350.62c.06,0,.22.67.81,1.76a11,11,0,0,0,3.46,3.85c1.81,1.28,4.43,1.93,7.33,2.39s6.15.81,9.53,1.26c6.78.88,12.9,1.7,17.34,2.32l5.24.77,1.42.23a1.52,1.52,0,0,1,.49.12,2.36,2.36,0,0,1-.5,0l-1.44-.13-5.26-.6c-4.45-.53-10.58-1.3-17.36-2.18-3.39-.45-6.61-.83-9.54-1.3s-5.6-1.18-7.46-2.56a10.67,10.67,0,0,1-3.43-4.06,7.8,7.8,0,0,1-.52-1.35A2.19,2.19,0,0,1,232.81,350.62Z" style="fill:#263238"></path><path d="M442.78,370.82c0,.14-30.92.26-69.07.26s-69.07-.12-69.07-.26,30.92-.26,69.07-.26S442.78,370.68,442.78,370.82Z" style="fill:#263238"></path><path d="M435.21,374.66c0,.14-26.18.26-58.47.26s-58.47-.12-58.47-.26,26.17-.26,58.47-.26S435.21,374.52,435.21,374.66Z" style="fill:#263238"></path><path d="M445.06,366.61c0,.15-31.44.26-70.21.26s-70.21-.11-70.21-.26,31.43-.26,70.21-.26S445.06,366.47,445.06,366.61Z" style="fill:#263238"></path><path d="M446.13,362.41c0,.14-31.68.26-70.74.26s-70.75-.12-70.75-.26,31.67-.26,70.75-.26S446.13,362.26,446.13,362.41Z" style="fill:#263238"></path><path d="M446.13,358.2c0,.15-31.68.26-70.74.26s-70.75-.11-70.75-.26,31.67-.26,70.75-.26S446.13,358.06,446.13,358.2Z" style="fill:#263238"></path><path d="M447.26,354c0,.14-31.92.26-71.3.26s-71.32-.12-71.32-.26,31.92-.26,71.32-.26S447.26,353.85,447.26,354Z" style="fill:#263238"></path><path d="M447.26,349.79c0,.15-31.92.26-71.3.26s-71.32-.11-71.32-.26,31.92-.26,71.32-.26S447.26,349.65,447.26,349.79Z" style="fill:#263238"></path><path d="M227.22,319.86s22.18,19.37,70.4,19.25,159.09-8.5,159.09-8.5-141.85.07-166-1.3A386.19,386.19,0,0,1,227.22,319.86Z" style="opacity:0.30000000000000004"></path><polygon points="359.46 281.78 369.66 288.64 378.6 288.64 388.75 281.78 359.46 281.78" style="fill:#fff"></polygon><path d="M359.19,160.58c.43,0,1.7,7.39,7.66,7.25s20.52,0,20.52,0v-9.23Z" style="fill:#263238"></path><path d="M394,160.58c-.42,0-.07,7.39-6,7.24s-17.2,0-17.2,0l-4.94-9.23Z" style="fill:#263238"></path><path d="M391.4,170.39a2.6,2.6,0,0,1,2.1,1.06c1.42,1.94,4.26,6,4.34,7.22a2.86,2.86,0,0,1-2.57,3.24c-1.64.2-33.1,0-36.35,0a2.41,2.41,0,0,1-.6-.08c-.86-.21-3.09-.91-2.92-2.44s2.57-5.61,3.84-7.75a2.61,2.61,0,0,1,2.23-1.26Z" style="fill:#263238"></path><rect x="375.5" y="167.2" width="2.14" height="3.85" style="fill:#263238"></rect><path d="M286.71,146.41c0-.71,4.28-6.62,6.62-9.37s3.26-2.65,5.29-2.44c2.54.26,8.58,3.46,8.89,4.68a44.81,44.81,0,0,1,.48,5.2l-4.07-.1s.9-3.75-.3-4.5c-1.78-1.1-2.45-1.41-3.88-.8s-3.25,5.5-3.25,5.5Z" style="fill:#e0e0e0"></path><path d="M463.35,146.54c0,.14-40,.26-89.24.26s-89.25-.12-89.25-.26,39.95-.26,89.25-.26S463.35,146.39,463.35,146.54Z" style="fill:#263238"></path><path d="M537.69,361.67l-.82.22-2.41.6-9.3,2.28-6.72,1.63-8.05,1.68L501.13,370c-1.63.36-3.33.67-5.07,1l-5.36.94-11.49,2-12.52,1.8-6.59.95c-2.24.3-4.52.52-6.84.79L439,379.08c-19.57,1.8-41.15,3-63.83,3.18l-16.8-.11c-5.53-.13-11-.37-16.31-.55s-10.58-.53-15.72-.85-10.17-.58-15.05-1.11L297,378.3c-4.63-.45-9.11-1.09-13.45-1.6l-6.39-.79-3.11-.39-3-.47-11.53-1.77-5.37-.82c-1.75-.29-3.44-.62-5.08-.92l-9.3-1.71c-2.9-.55-5.61-1-8.09-1.53l-6.76-1.45-9.35-2-2.43-.54-.82-.2s.28,0,.83.15l2.44.49,9.37,1.94,6.77,1.41c2.48.51,5.19.95,8.09,1.49l9.3,1.67c1.65.28,3.34.62,5.08.89l5.38.81,11.53,1.74,3,.45,3.1.38,6.39.78c4.34.5,8.82,1.13,13.45,1.57l14.29,1.33c4.88.52,9.91.73,15,1.08s10.37.72,15.71.84,10.78.42,16.3.54l16.78.11c22.67-.15,44.24-1.37,63.8-3.14L453.21,377c2.31-.27,4.59-.49,6.83-.78l6.59-.94,12.52-1.77,11.49-2,5.35-.92c1.75-.29,3.44-.59,5.08-.94l9.26-1.89,8.06-1.64,6.73-1.59,9.31-2.18,2.43-.55Z" style="fill:#263238"></path><path d="M388.21,201.8c0-3.08-1.06-11.82-3.61-14.15-2-1.8-6.64-2.33-9-2.48h-.21c-1.23,0-9.38.26-11.83,2.49S360,198.72,360,201.8v.1a3.3,3.3,0,0,0,3.1,3.47h22a3.3,3.3,0,0,0,3.1-3.47Z" style="opacity:0.30000000000000004"></path><path d="M442.86,201.8c0-3.08-1.06-11.82-3.62-14.15-2-1.8-6.64-2.33-8.94-2.48h-.22c-1.22,0-9.38.26-11.82,2.49s-3.62,11.07-3.62,14.15v.1a3.3,3.3,0,0,0,3.1,3.47h22a3.3,3.3,0,0,0,3.1-3.47Z" style="opacity:0.30000000000000004"></path><path d="M328.87,201.8c0-3.08-1.06-11.82-3.61-14.15-2-1.8-6.64-2.33-8.95-2.48h-.21c-1.23,0-9.38.26-11.83,2.49s-3.62,11.07-3.61,14.15v.1a3.3,3.3,0,0,0,3.1,3.47h22a3.3,3.3,0,0,0,3.1-3.47Z" style="opacity:0.30000000000000004"></path><path d="M335.36,200c0-4.64-1.6-17.79-5.44-21.3-3-2.7-10-3.51-13.46-3.73h-.33c-1.84,0-14.11.39-17.79,3.74-3.84,3.51-5.44,16.66-5.44,21.3v.14a5,5,0,0,0,4.67,5.23h33.12a5,5,0,0,0,4.67-5.23Z" style="fill:#263238"></path><path d="M276.9,227.57s1.74-12.43,4.71-16.27c5.23-6.77,33.15-4.34,33.15-4.34s26.65-1.76,30.48,2.76,6.12,17.39,6.12,17.39Z" style="fill:#263238"></path><path d="M458.71,200c0-4.64-1.6-17.79-5.45-21.3-3-2.7-10-3.51-13.46-3.73h-.32c-1.84,0-14.12.39-17.8,3.74-3.84,3.51-5.44,16.66-5.44,21.3v.14a5,5,0,0,0,4.67,5.23H454a5,5,0,0,0,4.66-5.23Z" style="fill:#263238"></path><path d="M400.57,226.68s1.74-12.31,4.71-16.12c5.23-6.7,33.14-4.29,33.14-4.29s26.65-1.75,30.49,2.72S475,226.22,475,226.22Z" style="fill:#263238"></path><path d="M283,164.61c-5,7.52-17.63,38.94-17.63,38.94s44,1.74,45.53-1.74,24.44-41.27,24.44-41.27S286.71,159.09,283,164.61Z" style="fill:#fff;opacity:0.30000000000000004"></path><path d="M452.36,180c0,.09-.42-.09-.67-.63a2.13,2.13,0,0,1-.16-.45,1.31,1.31,0,0,1,0-.59,2.57,2.57,0,0,1,.59-1.1,4.55,4.55,0,0,1,2.47-1.73c.07.13-1.05.85-2.07,2.06a2.62,2.62,0,0,0-.53.89,1.32,1.32,0,0,0,0,.79A6.6,6.6,0,0,0,452.36,180Z" style="fill:#6f4439"></path><path d="M483.29,213.46a25.87,25.87,0,0,0-2.43-2.28,24.71,24.71,0,0,0-3-1.52,4.76,4.76,0,0,1,3.27,1.09A4.85,4.85,0,0,1,483.29,213.46Z" style="fill:#263238"></path><path d="M282.14,227s1-8,2.57-9.59,4.78-4.05,10.58-5.92a53.06,53.06,0,0,1,9.68-2.29l17.79.12s15.87,1.83,19.29,4.92a10.74,10.74,0,0,1,2.56,4.73c.46,2.53,1.51,7.45,1.51,7.45Z" style="fill:#C53F3F"></path><path d="M305.47,209.79l-.34-27.87c-.32-7.23,3.62-13.45,10.86-13.58l.67,0a13,13,0,0,1,12.41,12.42c.25,6.28.44,13.22.26,16.57C329,204.3,322,205.1,322,205.1s0,4.22,0,6.26h0a8.92,8.92,0,0,1-14.84.64Z" style="fill:#ffbf9d"></path><path d="M322,204.86a16.75,16.75,0,0,1-8.93-3.05s2,5.31,8.92,5Z" style="fill:#ff9a6c"></path><path d="M327,186.55a1,1,0,0,1-1,1,1,1,0,0,1-1-.93,1,1,0,0,1,1-1A.94.94,0,0,1,327,186.55Z" style="fill:#263238"></path><path d="M327.47,183.57c-.13.12-.86-.47-1.93-.51s-1.87.46-2,.33.08-.29.43-.52a2.63,2.63,0,0,1,1.6-.42,2.56,2.56,0,0,1,1.52.56C327.43,183.27,327.53,183.51,327.47,183.57Z" style="fill:#263238"></path><path d="M317.3,186.36a1,1,0,0,1-1,1,1,1,0,0,1-1-.93,1,1,0,0,1,1-1A1,1,0,0,1,317.3,186.36Z" style="fill:#263238"></path><path d="M317,183.38c-.12.13-.85-.46-1.92-.5s-1.87.46-2,.32.08-.29.43-.52a2.76,2.76,0,0,1,1.59-.42,2.63,2.63,0,0,1,1.53.56C317,183.09,317.06,183.33,317,183.38Z" style="fill:#263238"></path><path d="M320.48,191.74a7.07,7.07,0,0,1,1.75-.24c.28,0,.54-.06.59-.24a1.41,1.41,0,0,0-.15-.82l-.72-2.11a35.75,35.75,0,0,1-1.59-5.5,34.61,34.61,0,0,1,2,5.36c.24.74.47,1.45.68,2.12a1.51,1.51,0,0,1,.1,1.08.69.69,0,0,1-.46.38,2,2,0,0,1-.47,0A6.74,6.74,0,0,1,320.48,191.74Z" style="fill:#263238"></path><path d="M317.48,180.06c-.16.26-1.18-.06-2.44-.14s-2.32.07-2.44-.22c-.05-.13.18-.37.63-.57a4.14,4.14,0,0,1,1.89-.3,4,4,0,0,1,1.82.57C317.36,179.66,317.55,179.93,317.48,180.06Z" style="fill:#263238"></path><path d="M327.65,180.43c-.23.24-1.1,0-2.14-.08s-1.94.12-2.13-.14.06-.37.45-.59a3.34,3.34,0,0,1,1.75-.35,3.41,3.41,0,0,1,1.69.53C327.63,180.06,327.75,180.32,327.65,180.43Z" style="fill:#263238"></path><path d="M305.49,186.85c-.12,0-4.72-1.61-4.76,3.15s4.74,3.82,4.75,3.68S305.49,186.85,305.49,186.85Z" style="fill:#ffbf9d"></path><path d="M304,191.86s-.08.06-.22.12a.77.77,0,0,1-.62,0,2,2,0,0,1-.93-1.85,2.65,2.65,0,0,1,.24-1.18.94.94,0,0,1,.63-.63.41.41,0,0,1,.48.23c.07.14,0,.23.06.24s.1-.08.07-.28a.6.6,0,0,0-.19-.3.62.62,0,0,0-.45-.12,1.17,1.17,0,0,0-.88.73,2.92,2.92,0,0,0-.3,1.32,2.16,2.16,0,0,0,1.19,2.06.89.89,0,0,0,.76-.11C304,192,304.06,191.87,304,191.86Z" style="fill:#ff9a6c"></path><path d="M338.67,174.31a1.2,1.2,0,0,0-.52-.67,3.51,3.51,0,0,0-1.78-.31,10,10,0,0,1-4.34-1.14,4.76,4.76,0,0,0,1.29-.88,3,3,0,0,0,.89-3,.66.66,0,0,0-.36-.46c-.31-.1-.59.2-.8.44a2.58,2.58,0,0,1-2.43,1,4.23,4.23,0,0,1-1.8-.56l-.06-.06L328,168h0a15.78,15.78,0,0,0-4.87-3.69,16.16,16.16,0,0,0-8.62-.78,6.54,6.54,0,0,0-5,5,5,5,0,0,0-5-.53l0,0c-1.85.64-2.92,2.57-3.48,4.44l-.09.31a7.24,7.24,0,0,1-2.5,2.39c-.18.1-.39.23-.41.43s.14.38.31.5a3.67,3.67,0,0,0,1.48.63,7.65,7.65,0,0,1-.62,1.29c-.21.35-.47.77-.29,1.14a.79.79,0,0,0,.81.36,2.21,2.21,0,0,0,.86-.38l-.63,1.47a4.37,4.37,0,0,0,2-.11c.37,1.76.63,5,1.07,6.21a7.27,7.27,0,0,1,2.2.12c.82.28.49,1.74,1.57,1.33.55-.2,1.41-2.26,1.6-2.81a27.1,27.1,0,0,0,1.3-11.48,8.64,8.64,0,0,1,2.72-1.91h0c1.91-.82,4.07-1.22,5.91-.29,1.42.73,2.24,2.22,3.3,3.42a10,10,0,0,0,7.3,3.65c.25,2.11.3,5.54.38,7.5l1.71-3.9h0a6.56,6.56,0,0,0,.37-.69l0-.07h0a11.61,11.61,0,0,1,.57-1.11h0a1.22,1.22,0,0,0,1.8-1.61,2.75,2.75,0,0,0-.58-.6,2,2,0,0,0,1.84.5,1.53,1.53,0,0,0,1.09-1.49,1.28,1.28,0,0,0-.76-1.05,4.33,4.33,0,0,0,2.49-.52C338.34,175.38,338.83,174.92,338.67,174.31Z" style="fill:#263238"></path><path d="M338.67,174.31a.75.75,0,0,1,.05.27,1.05,1.05,0,0,1-.35.75,4,4,0,0,1-3,.93l0-.17a1.37,1.37,0,0,1,.47,2.17,1.69,1.69,0,0,1-1.3.63,2.11,2.11,0,0,1-1.47-.59l.17-.2a2.72,2.72,0,0,1,.71.79,1.25,1.25,0,0,1,0,1.16,1.53,1.53,0,0,1-.93.79,1.32,1.32,0,0,1-1.24-.32l.24,0-.55,1.09v-.06h0v0l0,0-.4.77-.26.5,0-.58h0l.31.05c-.53,1.23-1.1,2.54-1.7,3.91l-.31.71,0-.77c-.1-2.3-.11-4.83-.39-7.48l.19.18a10.11,10.11,0,0,1-5-1.54,12.22,12.22,0,0,1-2.12-1.77c-.65-.68-1.2-1.46-1.79-2.18a5.46,5.46,0,0,0-2.13-1.72,5.37,5.37,0,0,0-2.79-.31,8.93,8.93,0,0,0-5.24,2.61l.07-.19a27.79,27.79,0,0,1-.68,9.46,14.54,14.54,0,0,1-1.88,4.65,1,1,0,0,1-1.45.31c-.36-.45-.38-.88-.62-1.08-.47-.38-1.46-.16-2.3-.22h-.18l-.06-.16a14.37,14.37,0,0,1-.44-2.07c-.22-1.41-.36-2.83-.63-4.18l.32.2a4.47,4.47,0,0,1-2.12.11l-.32-.06.13-.29.63-1.47.38.32a2.06,2.06,0,0,1-1.22.42,1.05,1.05,0,0,1-.68-.3.86.86,0,0,1-.21-.74,5.14,5.14,0,0,1,.49-1.12l.48-1,.19.35a4,4,0,0,1-1.57-.68,1.1,1.1,0,0,1-.35-.36.61.61,0,0,1,0-.65,2.48,2.48,0,0,1,.72-.52,7.13,7.13,0,0,0,2.13-2.14l0,.07a10,10,0,0,1,1.28-2.91,5,5,0,0,1,2.45-2l.09,0,.09,0,0,0h-.19a5.28,5.28,0,0,1,5.29.58l-.39.15a6.55,6.55,0,0,1,3.94-4.78,8.39,8.39,0,0,1,3-.68,17.42,17.42,0,0,1,2.9.08,13.21,13.21,0,0,1,5.23,1.54,19.86,19.86,0,0,1,3.81,3.2l-.28.2h0l.31-.16h0l0,0,.78.81,0,0a3.79,3.79,0,0,0,1.46.5,2.85,2.85,0,0,0,1.46-.08,3,3,0,0,0,1.13-.85,1.33,1.33,0,0,1,.65-.46.63.63,0,0,1,.69.44,2.85,2.85,0,0,1-.4,2.62,4.41,4.41,0,0,1-1.82,1.49v-.2a11,11,0,0,0,5.14,1.22,1.77,1.77,0,0,1,1.25.57.77.77,0,0,1,.2.43,1.46,1.46,0,0,0-.24-.39,1.78,1.78,0,0,0-1.22-.5,10.66,10.66,0,0,1-5.23-1.13l-.19-.1.19-.1a4.31,4.31,0,0,0,1.71-1.43,2.63,2.63,0,0,0,.35-2.36c-.08-.2-.22-.31-.37-.27a1.09,1.09,0,0,0-.49.38,3.4,3.4,0,0,1-1.23.93,3.11,3.11,0,0,1-1.63.12,4.28,4.28,0,0,1-1.6-.54h0l0,0-.78-.8,0-.06v0l.32-.16h0l.44.92-.73-.72a19.58,19.58,0,0,0-3.76-3.11,12.84,12.84,0,0,0-5.07-1.46,11.27,11.27,0,0,0-5.62.59,6.07,6.07,0,0,0-3.66,4.44l-.07.42-.32-.28a4.79,4.79,0,0,0-4.8-.48l-.09,0-.1-.05h.14a4.44,4.44,0,0,0-2.19,1.81,9.52,9.52,0,0,0-1.22,2.78v0l0,0a7.54,7.54,0,0,1-2.28,2.29,3.22,3.22,0,0,0-.57.38s0,0,0,.11a.75.75,0,0,0,.2.2,3.41,3.41,0,0,0,1.37.58l.33.06-.14.29-.51,1a4.94,4.94,0,0,0-.43.94c0,.25.13.43.42.46a1.71,1.71,0,0,0,.91-.35l.7-.44-.33.76-.63,1.47-.19-.36a4,4,0,0,0,1.88-.1l.27-.08.06.28c.28,1.39.42,2.8.63,4.2a14.8,14.8,0,0,0,.42,2l-.23-.17c.42,0,.83,0,1.26,0a3.35,3.35,0,0,1,.69,0l.34.1a1,1,0,0,1,.35.22c.39.4.44.9.63,1.1s.15.08.33,0,.21-.13.34-.29a14.31,14.31,0,0,0,1.79-4.47,27.24,27.24,0,0,0,.69-9.28l0-.12.08-.08a9.46,9.46,0,0,1,5.54-2.75,5.9,5.9,0,0,1,3,.35,6,6,0,0,1,2.3,1.87c.61.75,1.14,1.51,1.77,2.16a11.3,11.3,0,0,0,2,1.71,9.59,9.59,0,0,0,4.76,1.5h.17l0,.17c.27,2.69.26,5.22.35,7.51l-.35-.06c.61-1.37,1.19-2.67,1.73-3.9l.27-.6,0,.66h0l-.31-.07.4-.75,0,.07h0v0l0,0c.2-.4.4-.78.58-1.12l.09-.18.14.14a1,1,0,0,0,.95.26,1.17,1.17,0,0,0,.75-.62c.34-.62-.16-1.26-.64-1.62l.17-.2a1.64,1.64,0,0,0,2.42,0A1.22,1.22,0,0,0,336,177a1.21,1.21,0,0,0-.66-.78l-.44-.21.49,0a4,4,0,0,0,2.94-.82A1.08,1.08,0,0,0,338.67,174.31Z" style="fill:#455a64"></path><path d="M311.75,169.34a4.61,4.61,0,0,0-.71.63,4.88,4.88,0,0,0-1.09,2.29,8,8,0,0,0-.2,1.77c0,.64,0,1.33.07,2.05a19.1,19.1,0,0,1,0,2.28,8.59,8.59,0,0,1-.17,1.21,2.46,2.46,0,0,1-.51,1.16,1.07,1.07,0,0,1-1,.32,1.6,1.6,0,0,1-.88-.51,3.58,3.58,0,0,1-.65-1.78l.15,0a6,6,0,0,1-.87,1.45,2.08,2.08,0,0,1-1.36.72,1.36,1.36,0,0,1-.72-.13,1.21,1.21,0,0,1-.62-1.11.94.94,0,0,1,.23-.54l.07.07a4.28,4.28,0,0,1-1.5,1.1,3.46,3.46,0,0,1-.47.18l-.17,0,.16-.07.45-.19a4.45,4.45,0,0,0,1.46-1.13l.07.07a.91.91,0,0,0-.06,1,1,1,0,0,0,.44.43,1.19,1.19,0,0,0,.65.12,1.93,1.93,0,0,0,1.26-.69,5.79,5.79,0,0,0,.84-1.42l.1-.22,0,.24a3.54,3.54,0,0,0,.62,1.7,1.42,1.42,0,0,0,.79.46.89.89,0,0,0,.83-.27,2.33,2.33,0,0,0,.47-1.09,8,8,0,0,0,.17-1.18,17,17,0,0,0,0-2.26c0-.72-.07-1.41-.06-2.06a9.63,9.63,0,0,1,.22-1.79,5,5,0,0,1,1.16-2.32A2.84,2.84,0,0,1,311.75,169.34Z" style="fill:#455a64"></path><path d="M333.19,176.35s0,0-.05.05l-.18.12a2.09,2.09,0,0,1-.29.19,4.26,4.26,0,0,1-.43.22,6.18,6.18,0,0,1-3,.5,7.93,7.93,0,0,1-4.19-1.6,13.69,13.69,0,0,1-3.56-4.2c-.49-.85-.9-1.72-1.34-2.52a9.49,9.49,0,0,0-1.53-2.14,4.82,4.82,0,0,0-2-1.24,3.58,3.58,0,0,0-1.06-.13,3.79,3.79,0,0,0-1,.18,4.05,4.05,0,0,0-1.46.85,4.24,4.24,0,0,0-.8,1,5.65,5.65,0,0,0-.37,1,.42.42,0,0,1,0-.07l0-.21a3.46,3.46,0,0,1,.28-.79,3.62,3.62,0,0,1,.79-1,4,4,0,0,1,1.48-.9,3.62,3.62,0,0,1,1-.19,3.19,3.19,0,0,1,1.1.13,4.67,4.67,0,0,1,2.06,1.26,9.15,9.15,0,0,1,1.57,2.16c.45.81.85,1.68,1.34,2.52a13.79,13.79,0,0,0,3.51,4.16,7.83,7.83,0,0,0,4.1,1.6,6.16,6.16,0,0,0,2.95-.44A10.17,10.17,0,0,0,333.19,176.35Z" style="fill:#455a64"></path><path d="M333.86,173.3s-.08.07-.25.17a5.58,5.58,0,0,1-.74.37,7.53,7.53,0,0,1-1.18.37,7.61,7.61,0,0,1-1.5.18,7.93,7.93,0,0,1-1.5-.12,8,8,0,0,1-1.19-.32,4.82,4.82,0,0,1-.76-.34,1.18,1.18,0,0,1-.26-.16s.4.18,1.06.39a7.46,7.46,0,0,0,1.17.28,8.73,8.73,0,0,0,1.48.11,9.27,9.27,0,0,0,1.47-.17,8,8,0,0,0,1.17-.33C333.47,173.49,333.85,173.27,333.86,173.3Z" style="fill:#455a64"></path><path d="M320.38,195c-.05-.17-1.17.26-2.34-.39s-1.51-1.89-1.67-1.84-.12.35.07.86a3,3,0,0,0,1.33,1.56,2.59,2.59,0,0,0,1.94.26C320.19,195.3,320.42,195.07,320.38,195Z" style="fill:#263238"></path><path d="M289.86,227a22.17,22.17,0,0,1-.14-6.77,11.46,11.46,0,0,1,.33,3.38A11.31,11.31,0,0,1,289.86,227Z" style="fill:#263238"></path><path d="M338.5,218.56a30.48,30.48,0,0,1-.09,8,31.66,31.66,0,0,1,.09-8Z" style="fill:#263238"></path><polygon points="288.32 213.45 314.66 227.57 335.36 227.57 296.4 208.71 288.32 213.45" style="fill:#455a64"></polygon><path d="M447.93,167.81c2-1.93,6.6-1.31,7.6.12a3.52,3.52,0,0,1,4.5,1.84l4.83,1.41a5.06,5.06,0,0,1,2.29,1.11,1.75,1.75,0,0,1,.26,2.32,2.67,2.67,0,0,1,.83,4.34,1.86,1.86,0,0,1-.45,2.67,18.42,18.42,0,0,1,2.78,5.68,3.76,3.76,0,0,1,.07,2.6,1.51,1.51,0,0,1-2.17.74,2.17,2.17,0,0,1-.06,2.35c.83.08,1,1.38.38,1.95a3,3,0,0,1-2.37.48,4,4,0,0,0-2.44.25.78.78,0,0,0,.23.55,3.42,3.42,0,0,1,.45,4.7l-.3.36a7.4,7.4,0,0,1-2.53,1.53c-1.94.85-3,.59-5.16.75.48,1.39-3.13,4.15-6.82.95A75.06,75.06,0,0,1,428.24,206c-1.15-.07-2.52-.32-3-1.38a2.86,2.86,0,0,1-2.56-1,8.52,8.52,0,0,1-1.38-2.53,5,5,0,0,1-3.29-4.75,6.21,6.21,0,0,1-2-4.56,3.63,3.63,0,0,1-1.75-5,21.93,21.93,0,0,1,2.85-6.61c-1.3-.37-1.67-2.18-1.05-3.37a7,7,0,0,1,3.06-2.56c-1,.2-1.77-1.1-1.47-2.07a3.85,3.85,0,0,1,2.15-2.06,18.42,18.42,0,0,1,4.2-1.55c.58-1.7,2.93-3.52,4.61-4.18,6.75-2.65,11.39-3.12,19.31,3.56" style="fill:#263238"></path><path d="M452.18,178.67c.19-1.37.52-2.71-.83-3l-13.58-5.23c-4.43-1-8.08,4.15-8.91,8.62-.92,5-1.84,11.06-1.7,14.86A11.5,11.5,0,0,0,434,204.09l-.52,4.59c.31,3.58.91,7.63,2.24,9.16,5-.55,13.84-10.76,13.84-10.76Z" style="fill:#ae7461"></path><path d="M435.28,191a6.81,6.81,0,0,0-1.65-.51c-.26-.06-.5-.14-.53-.32a1.35,1.35,0,0,1,.28-.77l1-1.92a35.19,35.19,0,0,0,2.39-5,34.4,34.4,0,0,0-2.79,4.85c-.35.67-.68,1.32-1,1.93a1.58,1.58,0,0,0-.27,1,.67.67,0,0,0,.39.43,1.39,1.39,0,0,0,.44.12A7,7,0,0,0,435.28,191Z" style="fill:#263238"></path><path d="M434,204.09a24.8,24.8,0,0,0,9.48-2.36s-2.11,4.63-9.72,4.64Z" style="fill:#6f4439"></path><path d="M440.59,179.78c.06.29,1.11.29,2.31.58s2.14.74,2.33.51-.05-.4-.41-.72a4,4,0,0,0-1.68-.82,3.88,3.88,0,0,0-1.86,0C440.81,179.45,440.56,179.64,440.59,179.78Z" style="fill:#263238"></path><path d="M430.6,178.86c.16.26.9.1,1.76.19s1.56.35,1.76.12,0-.36-.29-.62a2.48,2.48,0,0,0-1.38-.56,2.39,2.39,0,0,0-1.45.31C430.66,178.5,430.53,178.73,430.6,178.86Z" style="fill:#263238"></path><path d="M425.2,182.4a5.19,5.19,0,0,1,1.5-3.15c.48-.44,1.07-.76,1.5-1.24.93-1,.93-2.61,1.39-3.93a5.68,5.68,0,0,1,3.81-3.56c1.45-.4,3.05-.21,4.43-.82,1-.44,1.83-1.29,2.88-1.67,2-.75,4.23.43,6,1.67.25,1.51-.78,2.71-1.77,3.87a5.28,5.28,0,0,1-4,1.82c-1.18,0-2.54-.39-3.43.39s-.72,2.39-1.51,3.35c-1.13,1.37-3.42.65-5,1.43-1.24.6-1.84,2-2.53,3.16s-1.81,2.39-3.17,2.23A15.07,15.07,0,0,1,425.2,182.4Z" style="fill:#263238"></path><path d="M443.58,172.17a26.7,26.7,0,0,1,9.95,2.58,4.82,4.82,0,0,1,2.35,1.9,4.71,4.71,0,0,1,.33,2.66,26.37,26.37,0,0,1-2.92,8.71l-3.68,1.84c-2.66-.85-1.06-5.44-.75-7.77a5.57,5.57,0,0,1-2.87-5.15A6.11,6.11,0,0,1,443.58,172.17Z" style="fill:#263238"></path><path d="M449.74,188.85c.23-1.6,2.23-1.77,3.55-.83.73.51,1.24,1.46,1,3.17-.61,4.54-5.05,3-5,2.86S449.47,190.73,449.74,188.85Z" style="fill:#ae7461"></path><path d="M450.88,192.52s.07.06.2.14a.77.77,0,0,0,.59.09,2,2,0,0,0,1.14-1.63,2.66,2.66,0,0,0-.07-1.17,1,1,0,0,0-.52-.69.41.41,0,0,0-.49.16c-.08.12-.06.21-.09.22s-.09-.09,0-.28a.64.64,0,0,1,.22-.26.59.59,0,0,1,.46,0,1.12,1.12,0,0,1,.73.81,2.71,2.71,0,0,1,.1,1.31,2.08,2.08,0,0,1-1.41,1.81.87.87,0,0,1-.71-.22C450.87,192.63,450.86,192.52,450.88,192.52Z" style="fill:#6f4439"></path><path d="M451.24,194.48a.28.28,0,0,0,0,.06.62.62,0,0,0,.05.18,1.1,1.1,0,0,0,.49.51,2.75,2.75,0,0,0,1.11.32,3.63,3.63,0,0,0,.74,0,2.82,2.82,0,0,0,.82-.18l0,0a2.27,2.27,0,0,0,3.5,1.72l-.07,0a1,1,0,0,0,.57.44,1.33,1.33,0,0,0,.74,0,1.23,1.23,0,0,0,.63-.44,1.54,1.54,0,0,0,.29-.74,2.37,2.37,0,0,0-.38-1.56,6.66,6.66,0,0,0-1.12-1.26v.1a1.6,1.6,0,0,0,.81-1,2.39,2.39,0,0,0,0-1.35,3.5,3.5,0,0,0-.72-1.2,9.55,9.55,0,0,0-1-1v.1a1.69,1.69,0,0,0,.55-1.29,2.44,2.44,0,0,0-.41-1.4,6.12,6.12,0,0,0-2.11-1.72l0,.08a3,3,0,0,0-3-4l.06.08a2.6,2.6,0,0,0-.45-2.27,2.63,2.63,0,0,0-1.85-1.1l.05.07a2.57,2.57,0,0,0-.89-2.07,2.54,2.54,0,0,0-1.87-.68l.05.05a2.5,2.5,0,0,0-.28-1.2,3.3,3.3,0,0,0-.63-.89,2.56,2.56,0,0,0-1.51-.79l-.17,0h-.46c-.17,0-.33.05-.44.09l-.26.09-.09,0,.09,0,.27-.08a3,3,0,0,1,.44-.08h.45l.16,0a2.56,2.56,0,0,1,1.47.79,3.2,3.2,0,0,1,.61.88,2.46,2.46,0,0,1,.26,1.15v.06h.05a2.42,2.42,0,0,1,1.79.66,2.45,2.45,0,0,1,.84,2v.05h.06a2.46,2.46,0,0,1,1.77,1,2.51,2.51,0,0,1,.42,2.16l0,.09h.09a2.91,2.91,0,0,1,2.88,3.82l0,0,.05,0a5.9,5.9,0,0,1,2.06,1.68,2.32,2.32,0,0,1,.39,1.32,1.57,1.57,0,0,1-.5,1.19l-.06.05.06.05a5.4,5.4,0,0,1,1.69,2.14,2.24,2.24,0,0,1,0,1.28,1.47,1.47,0,0,1-.74.94l-.08.05.06.06a6.08,6.08,0,0,1,1.1,1.24,2.15,2.15,0,0,1,.37,1.48,1.24,1.24,0,0,1-.83,1.08,1,1,0,0,1-1.19-.39l0-.05,0,0a2.2,2.2,0,0,1-3.38-1.64v-.05l-.05,0a2.63,2.63,0,0,1-.8.18,2.89,2.89,0,0,1-.72,0,2.84,2.84,0,0,1-1.1-.29,1,1,0,0,1-.49-.49C451.25,194.56,451.25,194.47,451.24,194.48Z" style="fill:#455a64"></path><path d="M469,190.9a1.42,1.42,0,0,0,.19-.27,2.31,2.31,0,0,0,.31-.88,2.26,2.26,0,0,0-.27-1.46,2.41,2.41,0,0,0-1.57-1.18l0,.06a3.15,3.15,0,0,0-.24-2.29,3.19,3.19,0,0,0-.82-1,7.52,7.52,0,0,0-1.21-.68,2.79,2.79,0,0,1-.57-.4,1.48,1.48,0,0,1-.37-.6c-.18-.45-.2-1-.42-1.46a2.78,2.78,0,0,0-2.68-1.59l.07.08a3.67,3.67,0,0,0-3.74-4.45l.07.08a3.23,3.23,0,0,0-4.77-3.39l.07,0a4.31,4.31,0,0,0-1.52-1.1,7.07,7.07,0,0,0-1.61-.5,7.82,7.82,0,0,0-2.73,0,5.69,5.69,0,0,0-1.66.55,3.16,3.16,0,0,0-.39.24l-.13.09s.19-.12.54-.3a5.54,5.54,0,0,1,1.66-.51A7.45,7.45,0,0,1,450,170a6.15,6.15,0,0,1,1.58.5,4.38,4.38,0,0,1,1.48,1.07l0,0,0,0a3.1,3.1,0,0,1,4.58,3.25l0,.09h.09a3.6,3.6,0,0,1,2.89,1.32,3.55,3.55,0,0,1,.71,3l0,.09h.09a2.68,2.68,0,0,1,2.55,1.51c.21.46.24,1,.42,1.46a1.65,1.65,0,0,0,.4.64,3.08,3.08,0,0,0,.6.42,7.07,7.07,0,0,1,1.19.66,2.77,2.77,0,0,1,.8,1,3,3,0,0,1,.25,2.21v.05h.05a2.36,2.36,0,0,1,1.53,1.12,2.28,2.28,0,0,1,.28,1.42,2.45,2.45,0,0,1-.28.88A3,3,0,0,0,469,190.9Z" style="fill:#455a64"></path><path d="M425.22,188.85a.44.44,0,0,0,0-.37.86.86,0,0,0-.24-.4,1.55,1.55,0,0,0-.55-.33,2.64,2.64,0,0,1-.69-.35,1.45,1.45,0,0,1-.46-.77,2.82,2.82,0,0,1,0-1c0-.38.13-.78.16-1.2a12,12,0,0,0-.37-2.75,3.68,3.68,0,0,1,.05-1.51,1.86,1.86,0,0,1,.92-1.22,7,7,0,0,1,1.65-.42,3,3,0,0,0,.84-.32,1.9,1.9,0,0,0,.64-.68,9.17,9.17,0,0,0,.61-1.76,3,3,0,0,1,.38-.84,1.34,1.34,0,0,1,.72-.54,4.93,4.93,0,0,1,1.28-.08,2.06,2.06,0,0,0,.65-.11,1.32,1.32,0,0,0,.54-.39,4.57,4.57,0,0,0,.56-1.13,2.8,2.8,0,0,1,.65-1,2.74,2.74,0,0,1,2.07-.8,2.81,2.81,0,0,1,1.88.84l.06.06,0-.07a4.39,4.39,0,0,1,2.89-2.14,4,4,0,0,1,1.54,0,3.59,3.59,0,0,1,1.22.44,3.23,3.23,0,0,1,1.25,1.33,3.84,3.84,0,0,1,.19.44l0,.12s0,0,0,0a.1.1,0,0,1,0,0l0-.12a2.21,2.21,0,0,0-.18-.46,3.22,3.22,0,0,0-1.24-1.37,3.7,3.7,0,0,0-1.25-.47,4.15,4.15,0,0,0-1.57,0,4.47,4.47,0,0,0-3,2.17h.1a3,3,0,0,0-2-.89,2.89,2.89,0,0,0-2.16.83,3.08,3.08,0,0,0-.68,1,4.53,4.53,0,0,1-.55,1.1,1.35,1.35,0,0,1-1.09.45,4.89,4.89,0,0,0-1.31.08,1.53,1.53,0,0,0-.79.6,2.92,2.92,0,0,0-.4.88,9,9,0,0,1-.6,1.73,1.73,1.73,0,0,1-.59.64,2.49,2.49,0,0,1-.8.3,6.82,6.82,0,0,0-1.68.44,1.79,1.79,0,0,0-.64.55,2.41,2.41,0,0,0-.34.75,4.12,4.12,0,0,0,0,1.56,12.87,12.87,0,0,1,.4,2.72c0,.42-.12.81-.16,1.19a2.81,2.81,0,0,0,.05,1.09,1.46,1.46,0,0,0,.49.8,2.45,2.45,0,0,0,.71.35,1.63,1.63,0,0,1,.54.31.81.81,0,0,1,.24.38A.47.47,0,0,1,425.22,188.85Z" style="fill:#455a64"></path><path d="M416.88,181.11s0,0,.06-.08l.14-.25.55-1c.24-.41.51-.93.88-1.49a4.13,4.13,0,0,1,1.66-1.53c.38-.17.82-.27,1.26-.43a2.77,2.77,0,0,0,.65-.31,1.68,1.68,0,0,0,.52-.57c.25-.45.29-1,.5-1.47a1.41,1.41,0,0,1,.49-.59,2.38,2.38,0,0,1,.76-.28,5.24,5.24,0,0,0,.83-.25,1.52,1.52,0,0,0,.68-.6,7.06,7.06,0,0,0,.52-1.75,2.14,2.14,0,0,1,.37-.81,1.12,1.12,0,0,1,.76-.42c.61-.08,1.24.17,1.91.12a1.64,1.64,0,0,0,.92-.4,4.85,4.85,0,0,0,.63-.74,7.31,7.31,0,0,1,.56-.75,1.82,1.82,0,0,1,.71-.53,2.65,2.65,0,0,1,1.73.15,4.1,4.1,0,0,0,1.72.28,4.71,4.71,0,0,0,1.56-.58,8.25,8.25,0,0,1,1.4-.64,4.7,4.7,0,0,1,2.72.11,5,5,0,0,1,1.93,1.19,5.36,5.36,0,0,1,1,1.39,6.41,6.41,0,0,1,.4,1l.09.28,0,.09s0,0,0-.1l-.07-.27a5.28,5.28,0,0,0-.38-1,5.86,5.86,0,0,0-1-1.43,5.21,5.21,0,0,0-2-1.22,4.81,4.81,0,0,0-2.78-.13,7.47,7.47,0,0,0-1.42.64,4.49,4.49,0,0,1-1.52.56A4,4,0,0,1,434,167a5.15,5.15,0,0,0-.88-.22,1.85,1.85,0,0,0-.93.07,1.81,1.81,0,0,0-.77.56,8.61,8.61,0,0,0-.58.77,4.1,4.1,0,0,1-.6.71,1.49,1.49,0,0,1-.84.37c-.63.06-1.26-.2-1.92-.12a1.28,1.28,0,0,0-.85.47,2.27,2.27,0,0,0-.39.87,6.55,6.55,0,0,1-.51,1.71,1.35,1.35,0,0,1-.61.55,5.41,5.41,0,0,1-.81.24,3,3,0,0,0-.8.3,1.52,1.52,0,0,0-.53.65,14.83,14.83,0,0,1-.5,1.47,1.84,1.84,0,0,1-1.09.83c-.44.16-.88.26-1.27.44a4.16,4.16,0,0,0-1.68,1.58c-.37.57-.64,1.09-.87,1.51l-.52,1c-.06.1-.1.19-.14.25A.41.41,0,0,1,416.88,181.11Z" style="fill:#455a64"></path><path d="M422.11,176.69l-.09,0a.47.47,0,0,0-.24,0,1,1,0,0,0-.52.77,2.37,2.37,0,0,0,.05.69,3,3,0,0,1,.06.8,1.77,1.77,0,0,1-.39.82c-.2.26-.44.52-.65.83a1.31,1.31,0,0,0-.2,1.14c.12.4.37.75.48,1.16a1.63,1.63,0,0,1-.22,1.24c-.21.41-.49.79-.7,1.25a1.8,1.8,0,0,0-.2.73,1.85,1.85,0,0,0,.11.77,10.11,10.11,0,0,0,.77,1.36,2.15,2.15,0,0,1,.38,1.49,7.06,7.06,0,0,1-.67,1.5,2.39,2.39,0,0,0-.23.83,1.8,1.8,0,0,0,.15.83,7.17,7.17,0,0,0,.89,1.37,3.71,3.71,0,0,1,.7,1.35,11.53,11.53,0,0,0,.36,1.46,1.65,1.65,0,0,0,.43.61,2,2,0,0,0,.62.37,3.75,3.75,0,0,1,.61.27,2.2,2.2,0,0,1,.51.4,4.78,4.78,0,0,1,.67,1,10.83,10.83,0,0,0,.55,1,3.15,3.15,0,0,0,1.5,1.29,3.23,3.23,0,0,0,2.42.06,2.31,2.31,0,0,0,.3-.14,3.55,3.55,0,0,1-1.24.29,3.49,3.49,0,0,1-1.45-.28,3.11,3.11,0,0,1-1.45-1.27c-.19-.31-.35-.66-.53-1a4.93,4.93,0,0,0-.69-1.06,2.49,2.49,0,0,0-.53-.43c-.2-.11-.41-.19-.62-.28a2.16,2.16,0,0,1-.59-.34,1.53,1.53,0,0,1-.39-.57,11.67,11.67,0,0,1-.35-1.44,4,4,0,0,0-.72-1.4,6.41,6.41,0,0,1-.87-1.34,1.73,1.73,0,0,1-.15-.78,2.2,2.2,0,0,1,.23-.77,7,7,0,0,0,.67-1.54,1.66,1.66,0,0,0-.05-.83,3.38,3.38,0,0,0-.34-.75,8.18,8.18,0,0,1-.76-1.34,1.6,1.6,0,0,1-.11-.71,1.7,1.7,0,0,1,.19-.69c.2-.44.48-.82.69-1.24a1.8,1.8,0,0,0,.22-1.33c-.12-.44-.38-.78-.49-1.16a1.21,1.21,0,0,1,.18-1c.2-.31.44-.56.64-.83a1.8,1.8,0,0,0,.39-.87,2.42,2.42,0,0,0-.07-.82,2.69,2.69,0,0,1-.06-.67,1,1,0,0,1,.48-.76A.78.78,0,0,1,422.11,176.69Z" style="fill:#455a64"></path><path d="M438.45,192.81a.63.63,0,0,0-.77-.4l-2.94.84-.33.09a7.26,7.26,0,0,0,.51,1.72,1.79,1.79,0,0,0,1.17,1,2,2,0,0,0,1.23-.21,2.36,2.36,0,0,0,1.38-1.35A3.43,3.43,0,0,0,438.45,192.81Z" style="fill:#6f4439"></path><path d="M454,193.93a2.25,2.25,0,0,1,.65.45,3.05,3.05,0,0,1,1,1.91,3.12,3.12,0,0,1-.15,1.49,3.7,3.7,0,0,1-.94,1.45,3.8,3.8,0,0,1-1.67.92,3.4,3.4,0,0,1-2-.11,3.75,3.75,0,0,1-1.67-1.19,3.47,3.47,0,0,1-.7-1.77,3.55,3.55,0,0,1,1.13-2.94,3.12,3.12,0,0,1,1.09-.6,3.07,3.07,0,0,1,.92-.16,1.8,1.8,0,0,1,.58.06.59.59,0,0,1,.19.08,2.37,2.37,0,0,0-.77-.07,3.46,3.46,0,0,0-1.93.78,3.43,3.43,0,0,0-1.05,2.83,3.24,3.24,0,0,0,.68,1.68,3.56,3.56,0,0,0,1.59,1.14,3.31,3.31,0,0,0,1.94.1,3.53,3.53,0,0,0,1.59-.87,3.63,3.63,0,0,0,.93-1.38,3.27,3.27,0,0,0,.16-1.43,3.07,3.07,0,0,0-.9-1.87C454.24,194.08,454,194,454,193.93Z" style="fill:#e0e0e0"></path><path d="M440.62,187a1,1,0,0,0,.83,1.11,1,1,0,0,0,1.13-.76,1,1,0,0,0-.84-1.12A1,1,0,0,0,440.62,187Z" style="fill:#263238"></path><path d="M430.85,186a1,1,0,0,0,.83,1.11,1,1,0,0,0,1.12-.77,1,1,0,0,0-.83-1.11A.94.94,0,0,0,430.85,186Z" style="fill:#263238"></path><path d="M430.45,182.32c.08.16.88-.3,1.84-.12s1.56.88,1.7.76,0-.32-.26-.64a2.24,2.24,0,0,0-2.83-.51C430.55,182,430.4,182.25,430.45,182.32Z" style="fill:#263238"></path><path d="M439.69,183.82c.13.17,1-.42,2.18-.32s2,.79,2.11.65,0-.35-.39-.67a2.88,2.88,0,0,0-1.68-.71,2.67,2.67,0,0,0-1.74.45C439.78,183.48,439.63,183.75,439.69,183.82Z" style="fill:#263238"></path><path d="M435.47,195.62s.07.14.3.26a1.77,1.77,0,0,0,1.05.17,2.8,2.8,0,0,0,1.46-.64,1.66,1.66,0,0,0,.54-.81,2.24,2.24,0,0,0,.05-1,4.77,4.77,0,0,0-.29-1,.72.72,0,0,0-.39-.42.78.78,0,0,0-.52,0l-1.47.46a6.69,6.69,0,0,0-1.32.51,6.91,6.91,0,0,0,1.39-.3l1.48-.4c.3-.1.43-.07.55.22a4.27,4.27,0,0,1,.26.9,1.63,1.63,0,0,1-.47,1.58,2.8,2.8,0,0,1-1.3.63,1.74,1.74,0,0,1-1-.06C435.6,195.69,435.49,195.6,435.47,195.62Z" style="fill:#263238"></path><path d="M479.74,199.13s4.37,11.24,5.16,13.42c.89,2.46,1.88,5.47,2.4,7.07a1.18,1.18,0,0,1-.92,1.49c-5.17,1.19-23.63,3-23.63,3l-3.16-11.39-2.3-5,3.37.38,17.71,1.73-5.77-6.25Z" style="fill:#C53F3F"></path><path d="M407.9,225.61s.88-7.81,2.25-9.35a22.22,22.22,0,0,1,9.28-5.78c5.09-1.84,14-2.9,14-2.9,5.05,3.56,11.24,3.72,16.09-.5,0,0,9.82-.33,14,1.59,0,0-1.27,6.64-.87,9.11a37.9,37.9,0,0,1-.14,7.28Z" style="fill:#C53F3F"></path><path d="M463.92,217.26a34.78,34.78,0,0,1-1.4,8.26,16.83,16.83,0,0,1,.44-4.17A17.42,17.42,0,0,1,463.92,217.26Z" style="fill:#263238"></path><path d="M418.24,225.57a17.09,17.09,0,0,1-1.54-7.09,17.76,17.76,0,0,1,.9,3.52A17.1,17.1,0,0,1,418.24,225.57Z" style="fill:#263238"></path><path d="M455.85,175.58l2.46,2s3,.21,3.48.82S465,185,465,185l-4.87,4.81s-4.76-1.43-5.48-2.35a3.53,3.53,0,0,1-.51-2.36l0-2.66v-1.64l-.3.38s.06,2-1.15,1.9l-.43-.15v-3a2.84,2.84,0,0,1-.37-1.68c.13-.86,1.45-1.84,1.45-1.84l1.17-.86A1.17,1.17,0,0,1,455.85,175.58Z" style="fill:#ae7461"></path><polygon points="477.74 194.66 464.97 185.03 460.05 189.51 472.67 203.5 479.74 199.56 477.74 194.66" style="fill:#ae7461"></polygon><path d="M458.68,178.64A14.7,14.7,0,0,1,456,179l.08,0a5.11,5.11,0,0,0-1.05.88l-.53.59a1,1,0,0,0-.32.62v0l0,2.17-.06-.17a.36.36,0,0,0,.56,0,2.88,2.88,0,0,0,.69-1.59v-.15l.1-.07,1.51-1,.39.19c0-.1,0,0,.06,0h.27l.21,0,.06.22a1.38,1.38,0,0,0,.84.95l.21.05,0,.21a10,10,0,0,0-.06,3.56,10.09,10.09,0,0,0,.43,1.3,2.13,2.13,0,0,1-.68-1.23,9,9,0,0,1-.13-3.72l.17.26a1.75,1.75,0,0,1-1.21-1.26l.28.18a1.52,1.52,0,0,1-.43,0,.51.51,0,0,1-.48-.42l.39.18-1.49,1.06.11-.22a2.76,2.76,0,0,1-.23,1,3,3,0,0,1-.63,1,1,1,0,0,1-.64.29.88.88,0,0,1-.65-.28l-.07-.07v-.1c0-.76,0-1.49,0-2.18v0a1.44,1.44,0,0,1,.46-.87c.18-.21.37-.41.56-.6a5.23,5.23,0,0,1,1.18-.89l0,0h0A13.68,13.68,0,0,1,458.68,178.64Z" style="fill:#6f4439"></path><path d="M454,180.87s.16.35.07,1a2.23,2.23,0,0,1-.48,1.07,1.27,1.27,0,0,1-1.53.36l-.11-.05v-.15c0-.43,0-.9,0-1.39a7.63,7.63,0,0,1,.17-1.62,3,3,0,0,1,.47-.57l.46-.45.9-.8.44-.36a1.28,1.28,0,0,1,.55-.31,3.44,3.44,0,0,1,1,.16,5.6,5.6,0,0,1,1.75.69,8.34,8.34,0,0,1-1.84-.33,3.64,3.64,0,0,0-.85-.1,1.61,1.61,0,0,0-.33.25l-.41.36-.86.81-.45.44a3.42,3.42,0,0,0-.36.42,8.89,8.89,0,0,0-.14,1.43l-.06,1.38-.12-.21a.88.88,0,0,0,1-.23,1.89,1.89,0,0,0,.49-.86C453.93,181.23,453.91,180.87,454,180.87Z" style="fill:#6f4439"></path><path d="M454.79,177.79c-.14,0-.18-.42-.1-.89s.27-.81.41-.79.19.43.1.89S454.93,177.81,454.79,177.79Z" style="fill:#6f4439"></path><path d="M455,185.45c-.11-.1.31-.74.42-1.65s-.1-1.63,0-1.7.63.7.48,1.77S455.05,185.56,455,185.45Z" style="fill:#6f4439"></path><path d="M459,185.6c-.12.09-.7-.64-1.7-.93s-1.87,0-1.93-.11.15-.24.53-.37a2.59,2.59,0,0,1,1.55,0C458.66,184.55,459.11,185.56,459,185.6Z" style="fill:#6f4439"></path><polygon points="456.06 206.08 426.25 225.52 438.06 224.25 463.81 206.87 456.06 206.08" style="fill:#455a64"></polygon><path d="M416.06,216.37c0,.1.3,2.6-.48,3.94s-.9,1.52-.9,1.52l1.08,3.7-8.9,0h0l-1.2-5.3,6.81-4.88,2.86-.48Z" style="fill:#ae7461"></path><path d="M398.2,227.92,396,227.1c2.76-7.49,11.92-12.72,22.27-12.72,9.23,0,17.11,4.41,20.56,11.5l-2.12,1c-3.06-6.27-10.12-10.17-18.44-10.17C409,216.74,400.59,221.44,398.2,227.92Z" style="fill:#263238"></path><path d="M402.31,215.48c-.2.13-1.77,1.38-1.71,2.75s2.69,5.3,3.08,5.43.2.72,1.64,0c0,0,.52,2.29,3.47,1.18,0,0,1.83,1.38,2.35-.85,0,0,2.49.46,2.55-1.57s0-6.61,0-6.61a6.84,6.84,0,0,0,2.95.07c.85-.4.39-1.84,0-2.69s-2.29-1.11-2.29-1.11a3.21,3.21,0,0,0-.92-.59,4.21,4.21,0,0,0-1.37.39s-2.4-1.18-3.2.13c0,0-2.69-.59-3.35.85a2.87,2.87,0,0,0-2.29,1.44Z" style="fill:#ae7461"></path><path d="M414.21,215.94c0,.06-.38,0-.87-.26a3.15,3.15,0,0,1-1.31-1.74,2.29,2.29,0,0,1,.32-2.17c.42-.46.85-.42.84-.35s-.3.17-.55.57a2.28,2.28,0,0,0-.11,1.8,3.44,3.44,0,0,0,1,1.59C413.94,215.72,414.23,215.86,414.21,215.94Z" style="fill:#6f4439"></path><path d="M409.08,212.2c.15,0,.46,2.63,1,5.85s1.2,5.8,1.05,5.84a22.56,22.56,0,0,1-1.56-5.75A23,23,0,0,1,409.08,212.2Z" style="fill:#6f4439"></path><path d="M405.66,213.45c.16,0,.41,2.58,1.23,5.65s1.87,5.46,1.73,5.52a16.2,16.2,0,0,1-2.23-5.38A16.63,16.63,0,0,1,405.66,213.45Z" style="fill:#6f4439"></path><path d="M402.73,215.15c.15,0,.43,2,1.15,4.3s1.59,4.14,1.46,4.21a14.83,14.83,0,0,1-2.61-8.51Z" style="fill:#6f4439"></path><path d="M412.06,211.88a3,3,0,0,1,1.41-.48,2.75,2.75,0,0,1,1,.58l-.07,0a5.6,5.6,0,0,1,1.62.45,1.74,1.74,0,0,1,.8.69,6.93,6.93,0,0,1,.39,1,2.77,2.77,0,0,1,.12,1.2,1.13,1.13,0,0,1-.34.63,1.41,1.41,0,0,1-.66.28,8,8,0,0,1-2.66-.16l.29-.23c0,1.11,0,2.27,0,3.48v2.8a2.68,2.68,0,0,1-.13,1,1.75,1.75,0,0,1-1.21,1.07,3.56,3.56,0,0,1-1.52.06l.3-.19a1.76,1.76,0,0,1-1.09,1.41,2,2,0,0,1-1.66-.42l.23,0a3.72,3.72,0,0,1-2.28.21,2.2,2.2,0,0,1-1.48-1.57l.3.15a4.09,4.09,0,0,1-.89.33.71.71,0,0,1-.56-.06c-.19-.12-.25-.25-.31-.27a2,2,0,0,1-.63-.63c-.16-.22-.31-.43-.45-.64a21.16,21.16,0,0,1-1.29-2.23,8.72,8.72,0,0,1-.62-1.54,1.27,1.27,0,0,1-.06-.59s0,.2.19.55a10.22,10.22,0,0,0,.71,1.46,21.85,21.85,0,0,0,1.36,2.15c.14.2.29.41.46.61s.33.45.5.51c.39.28.32.34.62.28a4.15,4.15,0,0,0,.78-.32l.23-.12.08.27a1.76,1.76,0,0,0,1.19,1.21,3.29,3.29,0,0,0,2-.22l.12,0,.11.08a1.6,1.6,0,0,0,1.23.32c.38-.1.62-.55.73-1l.05-.23.25,0c.81.12,1.88,0,2.15-.81a8,8,0,0,0,.1-1.8v-1.84c0-1.21,0-2.37,0-3.48v-.29l.29.06a7.86,7.86,0,0,0,2.47.19c.81,0,.77-.92.58-1.57a4.64,4.64,0,0,0-.34-.95,1.34,1.34,0,0,0-.62-.55,5.41,5.41,0,0,0-1.51-.49h0l0,0a2.88,2.88,0,0,0-.84-.59,2.15,2.15,0,0,0-.73.12A2.67,2.67,0,0,1,412.06,211.88Z" style="fill:#6f4439"></path><rect x="382.24" y="205.37" width="2.12" height="2.12" style="fill:#263238"></rect><rect x="364.86" y="205.37" width="2.12" height="2.12" style="fill:#263238"></rect></g></svg>