<svg xmlns="http://www.w3.org/2000/svg" viewBox="0 0 500 500"><g id="freepik--Floor--inject-3"><path d="M457.19,454.55c0,.14-92.77.26-207.18.26s-207.2-.12-207.2-.26,92.75-.26,207.2-.26S457.19,454.4,457.19,454.55Z" style="fill:#263238"></path><path d="M457.19,482.76c0,.14-92.77.26-207.18.26s-207.2-.12-207.2-.26,92.75-.26,207.2-.26S457.19,482.61,457.19,482.76Z" style="fill:#263238"></path></g><g id="freepik--speech-bubble--inject-3"><path d="M119.06,92.71l-3.58-7.28a26.08,26.08,0,1,0-4.74,8.06h0Z" style="fill:#fff"></path><path d="M119.06,92.71l-.52.06-1.58.17-6.22.65a.09.09,0,0,1-.09-.13h0l.15.1A26.21,26.21,0,0,1,100.33,101a25.53,25.53,0,0,1-3.89,1.15,29.83,29.83,0,0,1-4.32.53,26.07,26.07,0,0,1-18.45-6.49A26.31,26.31,0,0,1,67,87.08a26.32,26.32,0,0,1,1.32-23.79l.83-1.38,1-1.3.47-.65.53-.6,1.06-1.19c.37-.38.78-.73,1.16-1.09a13,13,0,0,1,1.19-1,25.06,25.06,0,0,1,2.55-1.81,26.8,26.8,0,0,1,11.39-3.9,26.33,26.33,0,0,1,20.24,6.79,26.08,26.08,0,0,1,5.72,7.59,27.39,27.39,0,0,1,1.64,4,32.37,32.37,0,0,1,.88,4,25.91,25.91,0,0,1-1.37,12.74v-.07l2.62,5.47c.29.6.51,1.06.66,1.39l.22.46s-.1-.17-.26-.48-.4-.8-.7-1.4l-2.7-5.36a.08.08,0,0,1,0-.07,26.07,26.07,0,0,0,1.26-12.64,36,36,0,0,0-.9-3.92,27.91,27.91,0,0,0-1.63-4A25.81,25.81,0,0,0,77.29,54.59a23,23,0,0,0-2.52,1.78,12.45,12.45,0,0,0-1.16,1c-.38.36-.78.7-1.14,1.07l-1,1.18-.52.59-.46.63-.94,1.28-.82,1.37a25.36,25.36,0,0,0-3.47,11.82,25.62,25.62,0,0,0,2.15,11.58A25.88,25.88,0,0,0,92.1,102.32a27.84,27.84,0,0,0,4.28-.51,24.67,24.67,0,0,0,3.85-1.12,26.16,26.16,0,0,0,10.44-7.26.09.09,0,0,1,.13,0,.09.09,0,0,1,0,.11h0l-.09-.13,6.17-.53,1.61-.13Z" style="fill:#263238"></path><polygon points="78.95 78.18 82.33 74.8 88.83 80.59 101.6 68.3 104.73 71.67 88.35 87.09 78.95 78.18" style="fill:#455a64"></polygon></g><g id="freepik--character-1--inject-3"><path d="M254.83,138.72s5.43-12.38,5.5-18.55.3-16,2.3-15.82A2.29,2.29,0,0,1,265,107c0,1.26-1.25,11.32-.61,12.09a1,1,0,0,0,1.8-.38c0-.82,2.89-13,3.89-14s3.69-1.28,3.27,2-2.54,9.51-2.77,11.81-.59,1.91.48,3.21c0,0,7.08-12.68,8.2-12.87a1.71,1.71,0,0,1,2,2.23c-.36,1.7-4.32,8.56-4.88,9.72s-1.36,2.63-1.36,2.63l-.35,1.25s1.24-1.22,2-1,2.26,1.27,2.14,2.75-5,8.82-6.38,11.75-6.75,7.93-6.75,7.93Z" style="fill:#ffbf9d"></path><path d="M255.35,136.65a20.24,20.24,0,0,0,.69-4.88c.2-1.64.85-3.41,2.33-4.13a5.78,5.78,0,0,1,2.65-.41,84.92,84.92,0,0,1,11.12,1.19c-.37,1.8-.61,3.59-2.18,4.54a9.14,9.14,0,0,1-6.21.54,12.18,12.18,0,0,1,.3,10" style="fill:#ffbf9d"></path><path d="M264.05,143.46a23.2,23.2,0,0,0,.64-2.72,12.38,12.38,0,0,0-1.14-7.15l-.2-.42.46.12a9.68,9.68,0,0,0,5.21-.17,3.42,3.42,0,0,0,2.06-1.78,12.81,12.81,0,0,0,.81-3l.21.31-1-.15c-3.12-.47-6.08-.88-8.8-1a9.47,9.47,0,0,0-3.74.25,3.82,3.82,0,0,0-2,2.38,9.92,9.92,0,0,0-.51,2.68c-.07.82-.13,1.53-.22,2.1a8.42,8.42,0,0,1-.32,1.3,1.4,1.4,0,0,1-.2.42s.2-.61.32-1.75c.06-.57.09-1.27.13-2.09a10.41,10.41,0,0,1,.45-2.79,4.23,4.23,0,0,1,2.18-2.65,9.73,9.73,0,0,1,3.93-.33,80.51,80.51,0,0,1,8.85,1l1,.15.27,0-.05.27a13,13,0,0,1-.86,3.08,3.89,3.89,0,0,1-2.36,2,9,9,0,0,1-2.85.45,9.1,9.1,0,0,1-2.64-.33l.25-.3a12.21,12.21,0,0,1,1,7.38,11.75,11.75,0,0,1-.56,2A2.8,2.8,0,0,1,264.05,143.46Z" style="fill:#ff9a6c"></path><path d="M274.63,124.54a43.31,43.31,0,0,0-5.1,5.47,2.69,2.69,0,0,0-.81,2,1.85,1.85,0,0,0,1.68,1.38,4.38,4.38,0,0,0,2.25-.54,14.69,14.69,0,0,0,4.58-3.43" style="fill:#ffbf9d"></path><path d="M277.23,129.43a2.23,2.23,0,0,1-.47.65,13.12,13.12,0,0,1-1.6,1.48,13.88,13.88,0,0,1-2.78,1.68,4.09,4.09,0,0,1-1.95.42,2.22,2.22,0,0,1-1.85-1.2,1.72,1.72,0,0,1-.07-1.18,3,3,0,0,1,.48-1c.39-.56.8-1,1.19-1.5.79-.92,1.54-1.71,2.2-2.35a12.27,12.27,0,0,1,2.25-1.92c.05,0-.76.84-2,2.18-.61.66-1.33,1.47-2.09,2.4-.37.47-.78,1-1.14,1.48a1.71,1.71,0,0,0-.35,1.65,1.73,1.73,0,0,0,1.41.9,3.74,3.74,0,0,0,1.72-.35,15.41,15.41,0,0,0,2.75-1.53C276.41,130.22,277.17,129.37,277.23,129.43Z" style="fill:#ff9a6c"></path><path d="M191.37,417.63l-.1,22.93s23.29,7.8,23.69,12.05L170.47,454l-1.32-35.75Z" style="fill:#455a64"></path><path d="M177.46,439.08a1.8,1.8,0,0,0-1.19,2.11,1.75,1.75,0,0,0,2.08,1.2,1.93,1.93,0,0,0,1.25-2.25,1.81,1.81,0,0,0-2.31-1" style="fill:#e0e0e0"></path><path d="M170.47,454v-3.61h42.65s2,.8,1.83,2.21Z" style="fill:#263238"></path><path d="M192,440.32c0,.21-1.08.35-2.13,1.08s-1.59,1.66-1.79,1.58.08-1.34,1.36-2.21S192,440.11,192,440.32Z" style="fill:#fff"></path><path d="M196.72,442.1c.05.21-.88.6-1.59,1.55s-.89,1.92-1.1,1.92-.4-1.23.51-2.39S196.7,441.89,196.72,442.1Z" style="fill:#fff"></path><path d="M199.54,447.6c-.19,0-.53-1,0-2.23s1.52-1.72,1.62-1.54-.51.84-.92,1.83S199.76,447.57,199.54,447.6Z" style="fill:#fff"></path><path d="M191.43,435.09c-.09.2-1.09-.07-2.32.05s-2.17.54-2.29.36.78-1,2.23-1.11S191.53,434.91,191.43,435.09Z" style="fill:#fff"></path><path d="M138,422.1l-1.23,27.73L142.08,472a2.84,2.84,0,0,1-2.29,3.47h0a2.86,2.86,0,0,1-2.48-.79c-4.14-4.15-18.91-19.71-19-21.19-.1-2.36-.78-29.67-.78-29.67Z" style="fill:#455a64"></path><path d="M139.79,475.51l-21.55-24.19,0,1.17a4.51,4.51,0,0,0,1,2.8c1.72,2.11,6.59,7.83,18.07,19.43a2.86,2.86,0,0,0,2.56.79Z" style="fill:#263238"></path><g style="opacity:0.6000000000000001"><path d="M124.12,442.49a1.73,1.73,0,0,1,.43,2.26,1.67,1.67,0,0,1-2.24.44,1.83,1.83,0,0,1-.43-2.4,1.71,1.71,0,0,1,2.37-.19" style="fill:#fff"></path></g><path d="M133.72,463.25a8.58,8.58,0,0,1,2.48-2.11,8.72,8.72,0,0,1,3.2-.54c0-.07-.32-.29-1-.4a4.37,4.37,0,0,0-2.5.39,4.47,4.47,0,0,0-1.9,1.66C133.7,462.81,133.65,463.22,133.72,463.25Z" style="fill:#fff"></path><path d="M135.61,467a22.46,22.46,0,0,1,2.49-1.14,20.76,20.76,0,0,1,2.71-.29c.09-.14-1.24-.76-2.88-.3S135.47,466.93,135.61,467Z" style="fill:#fff"></path><path d="M130.14,458.4c.13.14,1.52-1.23,3.71-2a26.68,26.68,0,0,1,4.14-.87c0-.15-2-.58-4.35.3S130,458.32,130.14,458.4Z" style="fill:#fff"></path><path d="M129.81,449.94c.07.17,1.62-.43,3.62-.46s3.56.48,3.63.31a7.1,7.1,0,0,0-7.25.15Z" style="fill:#fff"></path><path d="M130,441.8a13.76,13.76,0,0,1,3.75-.59c2.11.09,3.56,1.16,3.66,1s-.25-.41-.88-.79a6.17,6.17,0,0,0-5.57-.31C130.26,441.42,129.93,441.73,130,441.8Z" style="fill:#fff"></path><path d="M133.7,439.66a2.24,2.24,0,0,0,.06-1.05,7.25,7.25,0,0,0-.77-2.77,3.23,3.23,0,0,0-1.36-1.57,1.15,1.15,0,0,0-1.29.23,1.82,1.82,0,0,0-.46,1.24,4,4,0,0,0,3.44,3.79,4.66,4.66,0,0,0,4.63-2.34,1.6,1.6,0,0,0,.1-1.34,1.12,1.12,0,0,0-1.16-.62,4.12,4.12,0,0,0-1.85.91,8.27,8.27,0,0,0-1.94,2.12,2.34,2.34,0,0,0-.44.95,12.61,12.61,0,0,1,2.64-2.72,3.74,3.74,0,0,1,1.63-.75.57.57,0,0,1,.63.33,1.06,1.06,0,0,1-.12.88,4.15,4.15,0,0,1-4,2,3.48,3.48,0,0,1-3-3.18,1.31,1.31,0,0,1,.29-.88.61.61,0,0,1,.71-.14,3,3,0,0,1,1.17,1.32A10.67,10.67,0,0,1,133.7,439.66Z" style="fill:#fff"></path><path d="M205.06,228.93a98.42,98.42,0,0,1,3.38,28.87c-.21,6.17-13.76,177.3-13.76,177.3l-28,1.19L167.74,276l-2.28.59s-12.41,68.89-13.19,80c-.7,10-10.55,82.68-10.55,82.68l-25.62,1.38,4.14-95.78,5.64-92L128.34,226Z" style="fill:#263238"></path><path d="M162.62,259.81a5.45,5.45,0,0,0,1.2.61,14,14,0,0,0,3.53,1.07,7.33,7.33,0,0,0,2.58-.09,5.46,5.46,0,0,0,2.65-1.41,6.46,6.46,0,0,0,1.51-2.94,33.48,33.48,0,0,0,.61-3.4c.7-4.66,1.13-8.9,1.35-12,.11-1.53.18-2.78.2-3.64a5.58,5.58,0,0,0,0-1.34A6,6,0,0,0,176,238q-.15,1.47-.39,3.63c-.33,3.06-.82,7.28-1.52,11.92-.35,2.3-.56,4.63-1.93,6.05a5.82,5.82,0,0,1-4.78,1.46,15.39,15.39,0,0,1-3.49-.87A6.27,6.27,0,0,0,162.62,259.81Z" style="fill:#455a64"></path><path d="M170.14,237.75s-.18-.14-.58-.14a2.48,2.48,0,0,0-1.55.57,2.79,2.79,0,0,0-1.09,2.21,2.79,2.79,0,0,0,4.81,1.58,2.79,2.79,0,0,0,.43-2.43,2.45,2.45,0,0,0-.91-1.38c-.32-.23-.54-.25-.55-.23a3.18,3.18,0,0,1,1.05,1.7,2.42,2.42,0,0,1-.44,2,2.28,2.28,0,0,1-3.84-1.25,2.4,2.4,0,0,1,.82-1.87A3.21,3.21,0,0,1,170.14,237.75Z" style="fill:#455a64"></path><path d="M126.2,251.18a3.42,3.42,0,0,0,1,.11,18.36,18.36,0,0,0,2.63-.09,25.48,25.48,0,0,0,15.46-7.29,18.17,18.17,0,0,0,1.74-2,3.36,3.36,0,0,0,.53-.81c-.09-.07-.94,1-2.56,2.48a28.52,28.52,0,0,1-7.06,4.75,29,29,0,0,1-8.16,2.44C127.57,251.09,126.2,251.07,126.2,251.18Z" style="fill:#455a64"></path><path d="M193.89,237.26a12.21,12.21,0,0,0,1.58,2.8,31.76,31.76,0,0,0,5.12,5.82,32.22,32.22,0,0,0,6.36,4.44,12.55,12.55,0,0,0,3,1.25,28.54,28.54,0,0,0-2.75-1.62,40.71,40.71,0,0,1-6.18-4.51,40.1,40.1,0,0,1-5.17-5.63A30,30,0,0,0,193.89,237.26Z" style="fill:#455a64"></path><polygon points="151.64 103.96 144.96 113.12 117.78 123.63 123.76 162.25 129.47 202.23 125.93 262.88 212.15 262.88 203.18 185.37 208.07 120.91 185.65 113.08 178.87 104.83 151.64 103.96" style="fill:#FF725E"></polygon><path d="M149,107.62s7.08,35,10.69,44.87S171.2,183,171.58,183.42s8.94-18.92,10.22-29.14,1.61-27.19,1.61-30.65-3.29-17.27-3.29-17.27l-1.25-1.53L151.64,104Z" style="fill:#e0e0e0"></path><path d="M208.07,120.91a26.44,26.44,0,0,1,8.33,9.42c2.06,4.32,18.78,32.74,18.78,32.74l19.12-26.74L270.89,147s-20.51,34.86-22.74,38.22S235.77,197.1,227,190.39s-22-29.59-22-29.59Z" style="fill:#FF725E"></path><path d="M178.91,107.28l2.27-42.15c1-12-5.09-22.53-17.08-23.21H163a21.45,21.45,0,0,0-21.37,19.74C140.79,72,140,83.51,140.09,89.07c.15,11.52,11.67,13.3,11.67,13.3,0,.35-.32,5.74-.32,5.74l17.18,12.15Z" style="fill:#ffbf9d"></path><path d="M151.76,102.37a27.84,27.84,0,0,0,15-4.45s-3.65,8.42-15.15,7.39Z" style="fill:#ff9a6c"></path><path d="M160.85,67.76c.21.24,1.61-.72,3.54-.64s3.28,1.13,3.5.9-.1-.54-.69-1a4.82,4.82,0,0,0-2.8-1,4.66,4.66,0,0,0-2.82.8C161,67.22,160.75,67.65,160.85,67.76Z" style="fill:#263238"></path><path d="M161.27,73.83a1.56,1.56,0,0,0,1.5,1.57,1.49,1.49,0,0,0,1.6-1.41,1.54,1.54,0,0,0-1.5-1.56A1.48,1.48,0,0,0,161.27,73.83Z" style="fill:#263238"></path><path d="M155.09,80.75a11.55,11.55,0,0,0-2.88-.51c-.45,0-.88-.14-1-.45a2.28,2.28,0,0,1,.3-1.34c.42-1.09.86-2.24,1.33-3.44,1.85-4.9,3.19-8.93,3-9s-1.86,3.85-3.71,8.75c-.44,1.21-.87,2.36-1.27,3.46a2.64,2.64,0,0,0-.24,1.78,1.14,1.14,0,0,0,.75.65,2.84,2.84,0,0,0,.76.11A11.26,11.26,0,0,0,155.09,80.75Z" style="fill:#263238"></path><path d="M160.83,61.68c.2.42,1.73.06,3.57.1s3.37.41,3.57,0c.09-.2-.2-.59-.84-1a5.89,5.89,0,0,0-2.72-.69,5.77,5.77,0,0,0-2.73.62C161,61.1,160.74,61.48,160.83,61.68Z" style="fill:#e0e0e0"></path><path d="M143.39,62.39c.17.37,1.7.09,3.52.16s3.3.42,3.52.07c.1-.17-.18-.5-.79-.82a6.43,6.43,0,0,0-2.65-.64,6.65,6.65,0,0,0-2.72.47C143.62,61.91,143.31,62.22,143.39,62.39Z" style="fill:#e0e0e0"></path><path d="M180.25,73.66c.19-.09,7.91-2.35,7.67,5.52s-8.1,6-8.11,5.78S180.25,73.66,180.25,73.66Z" style="fill:#ffbf9d"></path><path d="M182.31,82.05s.13.1.36.22a1.39,1.39,0,0,0,1,0c.84-.28,1.58-1.58,1.66-3a4.64,4.64,0,0,0-.32-2,1.62,1.62,0,0,0-1-1.09.69.69,0,0,0-.82.35c-.12.22-.07.38-.11.39s-.17-.14-.09-.46a.79.79,0,0,1,.32-.48,1,1,0,0,1,.77-.18,1.94,1.94,0,0,1,1.39,1.26,4.7,4.7,0,0,1,.41,2.21c-.1,1.59-1,3.05-2.11,3.34a1.48,1.48,0,0,1-1.25-.24C182.32,82.24,182.28,82.07,182.31,82.05Z" style="fill:#ff9a6c"></path><path d="M191.6,61.7c-1.43-2.89-1.58-6.22-2.25-9.38s-2.16-6.48-5.11-7.77l-.07,0c-2.64-1.29-6-1.55-8.37.18-.26-4.12-3.6-7.61-7.51-8.94S158,34.64,154,35.9c-3,1-6.07,3.21-9.8,6.54A38.27,38.27,0,0,0,139.87,47l-4.24,10.45,2.57,5.82a11,11,0,0,0,.5,1.18v0l1.82,12c.41-3.21,1-14.44,1.38-17.65a18.07,18.07,0,0,0,13.24-5c1.9-1.83,3.46-4.17,5.9-5.17,3.14-1.28,6.68.07,9.8,1.42l-.13-.14a14.57,14.57,0,0,1,4.21,3.52,44.73,44.73,0,0,0,.57,19.06c.23.93.92,2.87,1.79,3.28,1.71.81,2.32-1,3.45-1.83a4.67,4.67,0,0,1,3.26-.55,69.25,69.25,0,0,0,2.74-8,7.2,7.2,0,0,0,3.28.46l-.84-2.5a3.74,3.74,0,0,0,1.37.74,1.29,1.29,0,0,0,1.38-.49C192.26,63,191.9,62.3,191.6,61.7Z" style="fill:#e0e0e0"></path><path d="M172.11,45.81a9.58,9.58,0,0,1,1.07,1.13,8.17,8.17,0,0,1,1.48,3.93,14,14,0,0,1,.08,2.93c-.07,1.05-.23,2.18-.4,3.36a31.38,31.38,0,0,0-.36,3.75,15,15,0,0,0,.12,2,4.22,4.22,0,0,0,.67,2,1.71,1.71,0,0,0,1.58.66,2.56,2.56,0,0,0,1.51-.72A5.87,5.87,0,0,0,179.17,62h-.24a9.37,9.37,0,0,0,1.22,2.5,3.46,3.46,0,0,0,2.14,1.38,2.22,2.22,0,0,0,1.2-.13,2,2,0,0,0,.86-.73,1.93,1.93,0,0,0,.31-1,1.37,1.37,0,0,0-.3-.91l-.13.1a7.36,7.36,0,0,0,2.33,2,7.14,7.14,0,0,0,.74.35,1.35,1.35,0,0,0,.27.09,1.78,1.78,0,0,0-.25-.13,6.28,6.28,0,0,1-.72-.39,7.62,7.62,0,0,1-2.24-2l-.13.1a1.46,1.46,0,0,1,0,1.71,1.62,1.62,0,0,1-.77.64,1.88,1.88,0,0,1-1.08.1,3.19,3.19,0,0,1-2-1.3,9.75,9.75,0,0,1-1.17-2.45l-.14-.37-.1.39a5.88,5.88,0,0,1-1.25,2.7,2.31,2.31,0,0,1-1.36.64,1.45,1.45,0,0,1-1.34-.55,4.07,4.07,0,0,1-.62-1.86,12.88,12.88,0,0,1-.11-2,29,29,0,0,1,.34-3.71c.16-1.19.31-2.32.38-3.39a15,15,0,0,0-.12-3,8,8,0,0,0-1.59-4A4.68,4.68,0,0,0,172.11,45.81Z" style="fill:#fff"></path><path d="M135.88,54.4l.08.08.27.23a4.78,4.78,0,0,0,.47.35,4.91,4.91,0,0,0,.67.41,10.06,10.06,0,0,0,4.84,1.24,13,13,0,0,0,7.09-2.06,22.4,22.4,0,0,0,6.43-6.41c.93-1.33,1.71-2.7,2.56-4A15.16,15.16,0,0,1,161.1,41a7.94,7.94,0,0,1,3.44-1.77,5.82,5.82,0,0,1,1.76-.07,6,6,0,0,1,1.57.42,6.65,6.65,0,0,1,3.45,3.38,7.6,7.6,0,0,1,.47,1.76v-.12q0-.15,0-.36a5.42,5.42,0,0,0-.34-1.32,6.4,6.4,0,0,0-1.16-1.83,6.67,6.67,0,0,0-2.32-1.69,6.77,6.77,0,0,0-1.62-.45,5.61,5.61,0,0,0-1.82.07,8,8,0,0,0-3.56,1.79,15.59,15.59,0,0,0-2.87,3.34c-.85,1.27-1.64,2.64-2.56,4a22.53,22.53,0,0,1-6.34,6.35,12.9,12.9,0,0,1-7,2.08,10.24,10.24,0,0,1-4.79-1.14A14.65,14.65,0,0,1,135.88,54.4Z" style="fill:#fff"></path><path d="M143.32,67.22c.21.25,1.61-.72,3.53-.63s3.28,1.13,3.5.89-.1-.54-.69-1a4.79,4.79,0,0,0-2.79-1,4.67,4.67,0,0,0-2.83.81C143.43,66.68,143.21,67.11,143.32,67.22Z" style="fill:#263238"></path><path d="M145.36,73.21a1.56,1.56,0,0,0,1.5,1.57,1.49,1.49,0,0,0,1.6-1.41A1.56,1.56,0,0,0,147,71.8,1.5,1.5,0,0,0,145.36,73.21Z" style="fill:#263238"></path><path d="M140.92,45.75c-1,1.23-2.62,2.32-4.22,2a12.34,12.34,0,0,1-1.68-.6c-.58.3-.56,2.23-.21,2.79a10.61,10.61,0,0,0,1.13,1.31c-1.94.9-3.63.3-5.59-.55A9.88,9.88,0,0,0,135.73,59a3.49,3.49,0,0,0,3.16.25,4,4,0,0,0,1.54-2.39,43.25,43.25,0,0,0,2-10.45Z" style="fill:#e0e0e0"></path><path d="M154.43,87.15c0,.07.42.26,1.18.25A4.58,4.58,0,0,0,160,84c.19-.74.11-1.21.05-1.21s-.16.44-.42,1.08a5,5,0,0,1-4,3.15C154.89,87.11,154.44,87.07,154.43,87.15Z" style="fill:#263238"></path><path d="M117.77,123.63c-1.08.27-2.72,3.26-6.79,13.32S88.4,188.63,88.4,191.89s.27,8.43,9.79,12.24,36.72,6.26,36.72,6.26L136,192.16l-20.51-7.22,11.17-23.84Z" style="fill:#FF725E"></path><path d="M166.15,163.07c-.14.4-13,20.35-13,20.35l4.28,2.64,11.76-20.85Z" style="fill:#263238"></path><polygon points="166.25 151.7 167.24 154.68 169.95 154.47 175.38 157.48 175.84 160.19 178 160.1 179.27 160.8 174.16 169.32 172.78 168.4 172.43 165.74 169.54 165.74 164.23 162.44 163.94 160.19 160.47 161.29 159.66 160.83 165.44 151.7 166.25 151.7" style="fill:#263238"></polygon><path d="M175.84,160.19a7.36,7.36,0,0,1-1.27,3c-.93,1.58-2,2.63-2.14,2.51s.79-1.23,1.69-2.78A19.28,19.28,0,0,1,175.84,160.19Z" style="fill:#455a64"></path><path d="M167.24,154.68a7.3,7.3,0,0,1-1.28,3c-.92,1.58-2,2.63-2.13,2.51a29.14,29.14,0,0,1,1.69-2.78A18.3,18.3,0,0,1,167.24,154.68Z" style="fill:#455a64"></path><path d="M178,160.1a23.41,23.41,0,0,1-2.37,4.27,22.82,22.82,0,0,1-2.81,4,23.41,23.41,0,0,1,2.37-4.27A22.82,22.82,0,0,1,178,160.1Z" style="fill:#455a64"></path><path d="M166.28,151.87a18.4,18.4,0,0,1-5.73,9.23c-.12-.11,1.55-1.9,3.12-4.46S166.13,151.81,166.28,151.87Z" style="fill:#455a64"></path><path d="M170.81,184.94a6,6,0,0,1-.45-.76l-1.2-2.22c-1.06-2-2.54-4.79-4.36-8.23l-14.18-27.25c-3.75-7.26-7.25-14.06-10.22-19.83l-.07-.13.09-.11,4.58-5.62.1.3-5.37-1.29-.22,0,.13-.18c3.13-4.27,5.16-6.62,5.32-6.45,0,0-.15.12-.39.4s-.59.7-1,1.26c-.87,1.13-2.11,2.81-3.65,5l-.09-.23,5.39,1.21.3.07-.2.24-4.52,5.66,0-.24,10.29,19.79,14,27.32c1.76,3.47,3.19,6.3,4.21,8.3l1.12,2.27A4.71,4.71,0,0,1,170.81,184.94Z" style="fill:#263238"></path><path d="M136,192.16s3.42-8.78,4.22-10.11,6.15-4.28,7.48-4.28,11.23,5.34,11.36,6.55-.26,3.34-1.73,3.34-4.28-1.47-4.28-1.47l6,4.28s-.43,3.47-2.56,3.07-5.89-1.6-5.89-1.6l6.15,4.41s-2.94,3.07-4.54,2.13a40,40,0,0,0-3.88-1.87l3.88,3.48s-.8,2.54-2.14,1.87-4.14-2.14-4.14-2.14-1.34,5-3.08,7.35-7.91,2-7.91,2Z" style="fill:#ffbf9d"></path><path d="M172.82,184.94a5.36,5.36,0,0,1,.31-.74l1-2.06c.43-.92.94-2,1.54-3.26s1.19-2.78,1.88-4.4A168.34,168.34,0,0,0,186,148.2a153.38,153.38,0,0,0,3.93-25.73l.07.16-4.36-3.58-.13-.1.11-.12c.86-.92,1.6-1.71,2.25-2.39v.14L186.18,114l-.41-.68q-.14-.23-.12-.24a1.06,1.06,0,0,1,.17.21c.13.17.28.38.46.64l1.75,2.53.05.07-.06.07-2.2,2.45v-.22l4.41,3.51.08.06v.09a142.17,142.17,0,0,1-3.81,25.84,156.13,156.13,0,0,1-8.63,26.31c-.72,1.61-1.38,3.07-1.95,4.37s-1.18,2.32-1.63,3.23l-1.05,2A4.39,4.39,0,0,1,172.82,184.94Z" style="fill:#263238"></path><path d="M206.61,137.57a6.48,6.48,0,0,1,0,1.42c-.06,1-.13,2.31-.21,3.86-.2,3.26-.51,7.75-.88,12.72s-.74,9.45-1,12.7c-.15,1.55-.27,2.84-.37,3.85a6.63,6.63,0,0,1-.21,1.4,8.1,8.1,0,0,1,0-1.42c.05-1,.12-2.3.21-3.85.19-3.26.5-7.76.88-12.72s.74-9.46,1-12.71c.15-1.55.28-2.84.38-3.85A8.89,8.89,0,0,1,206.61,137.57Z" style="fill:#263238"></path><path d="M115.49,184.94c0,.09-1-.33-2.54-.67a12.6,12.6,0,0,0-6.19.3,12.33,12.33,0,0,0-5.21,3.34c-1.1,1.18-1.6,2.07-1.69,2s.08-.25.3-.66a10.52,10.52,0,0,1,1.11-1.61A11.44,11.44,0,0,1,113,183.92a10.23,10.23,0,0,1,1.84.66C115.29,184.78,115.51,184.91,115.49,184.94Z" style="fill:#263238"></path><path d="M119.15,136.11c.14,0,1.9,10.08,3.93,22.57s3.56,22.63,3.42,22.65-1.9-10.08-3.93-22.57S119,136.13,119.15,136.11Z" style="fill:#263238"></path><polygon points="202.45 233.98 94.19 234.72 79.47 186.76 81.3 183.42 214.87 183.77 216.59 186.76 202.45 233.98" style="fill:#455a64"></polygon><polygon points="112.2 210.39 112.2 454.58 189.54 454.58 185.79 210.39 112.2 210.39" style="fill:#455a64"></polygon><path d="M186.38,241.56a5.23,5.23,0,0,1,0-.57l-.07-1.67c0-1.49-.1-3.62-.18-6.31-.13-5.48-.31-13.27-.52-22.62l.22.22-34.61,0-39-.05.21-.21c0,8.14-.07,14.83-.09,19.53,0,2.3,0,4.12-.06,5.39,0,.6,0,1.06,0,1.41a3.14,3.14,0,0,1,0,.49,3.14,3.14,0,0,1,0-.49c0-.35,0-.81,0-1.41,0-1.27,0-3.09-.06-5.39,0-4.7,0-11.39-.09-19.53v-.21h.21l39-.05,34.61,0H186v.21c.14,9.36.26,17.14.34,22.62,0,2.7,0,4.83.06,6.32V241A4.27,4.27,0,0,1,186.38,241.56Z" style="fill:#263238"></path><g style="opacity:0.30000000000000004"><polygon points="185.79 210.39 200 234 186.24 234 185.79 210.39"></polygon></g><path d="M216.36,187c0,.14-30.46.26-68,.26s-68-.12-68-.26,30.45-.26,68-.26S216.36,186.84,216.36,187Z" style="fill:#263238"></path><path d="M172.72,184.84s0-.07-.05-.22,0-.41-.07-.67c0-.64-.13-1.5-.23-2.58-.18-2.29-.45-5.52-.77-9.48-.66-8-1.59-19.07-2.75-31.27-.61-6.06-1.18-11.84-1.7-17.09l.45.09-4,7.23-.15.26-.2-.23-9.08-10.36-2.49-2.9-.65-.78a1.46,1.46,0,0,1-.2-.27s.09.07.25.23l.69.73,2.58,2.82,9.22,10.25-.35,0c1.23-2.25,2.55-4.68,4-7.25l.37-.68.08.77c.57,5.24,1.16,11,1.73,17.09,1.17,12.21,2,23.27,2.6,31.29.29,4,.49,7.25.62,9.5,0,1.08.09,1.94.13,2.58l0,.67A.82.82,0,0,1,172.72,184.84Z" style="fill:#263238"></path><path d="M182.66,118.18a3.69,3.69,0,0,1-.41.88c-.3.54-.74,1.33-1.29,2.29-1.12,1.92-2.68,4.56-4.44,7.46l-.89,1.47-.18.29-.23-.25c-2-2.2-3.77-4.18-5-5.62a13.08,13.08,0,0,1-1.86-2.41s.22.19.58.57l1.54,1.61,5.12,5.5-.41,0c.29-.47.59-1,.89-1.47,1.75-2.9,3.37-5.51,4.56-7.38.6-.94,1.09-1.69,1.43-2.21A3.57,3.57,0,0,1,182.66,118.18Z" style="fill:#263238"></path><path d="M167.25,118.75s-7.75-6.12-8.9-5-4,4.21-3.16,8.72,1.82,5.17,1.82,5.17L167.6,123Z" style="fill:#455a64"></path><path d="M168,118.88l.65,4.09s7.19,5.18,9,3.74,1.82-6.13,1.72-8.14-.28-6.87-3.15-6.1S168,118.88,168,118.88Z" style="fill:#455a64"></path><path d="M171.47,120.71a3.87,3.87,0,1,1-3.87-3.87A3.88,3.88,0,0,1,171.47,120.71Z" style="fill:#455a64"></path><path d="M171.47,120.71s-.05-.34-.22-.92a3.83,3.83,0,0,0-1.42-2,3.65,3.65,0,1,0,0,5.87,3.81,3.81,0,0,0,1.42-2c.17-.57.18-.92.22-.92a1.8,1.8,0,0,1,0,1,3.83,3.83,0,0,1-1.39,2.26,4.06,4.06,0,0,1-3.86.64,4.1,4.1,0,0,1,0-7.73,4,4,0,0,1,3.86.64,3.81,3.81,0,0,1,1.39,2.25A1.77,1.77,0,0,1,171.47,120.71Z" style="fill:#263238"></path></g><g id="freepik--character-4--inject-3"><path d="M384.1,397.57l-29.26,1.59,1.6-25.11s-2-.29-2.89-11.11S351,333.76,351,333.76h0A37.7,37.7,0,0,1,389.09,336l1.69,1.13Z" style="fill:#aa6550"></path><path d="M388.24,350.18c.18-.09,7.3-2.7,7.56,4.72s-7.25,6.15-7.27,5.93S388.24,350.18,388.24,350.18Z" style="fill:#aa6550"></path><path d="M353.38,351c-.19-.07-6.91-1.41-6.17,6s8,5.12,8,4.91S353.38,351,353.38,351Z" style="fill:#aa6550"></path><path d="M390.59,349.19c-.69,6.28-.26,9.52-1,13.73-1.18,6.67-4.1,11.91-9.78,15.58s-13.68,4.15-19.05,0c-3.73-2.85-6.46-6.18-7.3-10.8s-1.91-12.84-2.26-17.52c-.62-8.45-1.73-16.49-1.73-16.49l23.85-6L387.61,335Z" style="fill:#263238"></path><path d="M352.13,343.75a4.72,4.72,0,0,1-4.05-.83c-1.17-.83-1.72-4.1-1.72-4.1s-3.08-1.53-3.49-3a4.21,4.21,0,0,1,1-4.28,8,8,0,0,1,9.65-10.23,7.83,7.83,0,0,1,12.4-2.45,10.14,10.14,0,0,1,18.71,3.33,5,5,0,0,1,7.78,5.87,4,4,0,0,1,3.93,6.59c-.64.71-1.57,1.25-1.76,2.18a5.56,5.56,0,0,0,.55,2.49,5.14,5.14,0,0,1-2.08,5.08,15,15,0,0,1-5.29,2.31,14.77,14.77,0,0,1-6.52.88c-2.18-.36-4.32-2-4.44-4.24a10.86,10.86,0,0,1-14.55-1.49,5.66,5.66,0,0,1-9.74,1.19" style="fill:#263238"></path><path d="M367.84,383.06c0,.17,1.91.52,4.26.09s4-1.4,4-1.56-1.83.5-4.08.89S367.86,382.86,367.84,383.06Z" style="fill:#263238"></path><path d="M387.77,345.27s.22.54-.37,1.22a2.84,2.84,0,0,1-1.33.82,13.92,13.92,0,0,1-2,.28,4.43,4.43,0,0,0-2.15.89,10.15,10.15,0,0,1-2.47,1.51,7,7,0,0,1-6.55-1l.4,0a6.59,6.59,0,0,1-3.13,2.17,6.31,6.31,0,0,1-5.12-.49,6.61,6.61,0,0,1-3-3.56l.45.08a5,5,0,0,1-4.13,1.74,4.74,4.74,0,0,1-4.18-3.51,1.84,1.84,0,0,1-.08-.79,5.65,5.65,0,0,0,1.37,2.54,4.38,4.38,0,0,0,2.92,1.33,4.57,4.57,0,0,0,3.69-1.64l.29-.35.16.43a6.16,6.16,0,0,0,2.78,3.23,5.8,5.8,0,0,0,4.65.43,6.11,6.11,0,0,0,2.87-2l.18-.23.23.18a6.46,6.46,0,0,0,6,.94,10,10,0,0,0,2.4-1.4,4.77,4.77,0,0,1,2.36-.9,16.26,16.26,0,0,0,2-.19,2.65,2.65,0,0,0,1.26-.67A1.89,1.89,0,0,0,387.77,345.27Z" style="fill:#455a64"></path><path d="M356.24,341.41a3.46,3.46,0,0,1-.57-1.17,8.47,8.47,0,0,1-.4-3.55,8.81,8.81,0,0,1,2-4.91,9.06,9.06,0,0,1,9.92-2.52l-.35.12a6.7,6.7,0,0,1,4.05-3,6.34,6.34,0,0,1,4,.3,6.45,6.45,0,0,1,2.16,1.48,2.29,2.29,0,0,1,.55.76,8.25,8.25,0,0,0-2.85-1.9,6.11,6.11,0,0,0-3.71-.16,6.32,6.32,0,0,0-3.69,2.78l-.12.21-.23-.09a8.44,8.44,0,0,0-3.91-.43,8.53,8.53,0,0,0-5.39,2.78,8.66,8.66,0,0,0-2,4.59A10.66,10.66,0,0,0,356.24,341.41Z" style="fill:#455a64"></path><path d="M369.22,343.41a2.23,2.23,0,0,1-.36-.71,10.23,10.23,0,0,1-.56-2.09,6.86,6.86,0,0,1,.24-3.24,4.89,4.89,0,0,1,2.77-2.88,3.52,3.52,0,0,1,2.1-.15l-.36.29a5.25,5.25,0,0,1,1-3.14,5.53,5.53,0,0,1,2-1.72,4.69,4.69,0,0,1,1.64-.52c.4,0,.62,0,.62,0a9.17,9.17,0,0,0-2.07.82,5.37,5.37,0,0,0-1.73,1.68,4.9,4.9,0,0,0-.84,2.83V335l-.37-.08a3,3,0,0,0-1.75.14,4.44,4.44,0,0,0-2.46,2.52,6.59,6.59,0,0,0-.34,3C368.91,342.32,369.32,343.38,369.22,343.41Z" style="fill:#455a64"></path><path d="M374.56,359.75c.05,0-.32.75-1.48,1.28a4.47,4.47,0,0,1-2.16.4,4.35,4.35,0,0,1-2.56-1h.4a5.12,5.12,0,0,1-.49.42,4.34,4.34,0,0,1-2.85.82,4.06,4.06,0,0,1-2.25-.87c-1.09-.88-1.27-1.79-1.21-1.79s.41.74,1.46,1.45a3.92,3.92,0,0,0,2,.67,4,4,0,0,0,2.47-.76,5.12,5.12,0,0,0,.43-.36l.19-.19.21.17a4.3,4.3,0,0,0,4.18.68A9.74,9.74,0,0,0,374.56,359.75Z" style="fill:#455a64"></path><path d="M376.14,365.56c.07,0,.06.49-.27,1.17a4.2,4.2,0,0,1-2.13,2,4.27,4.27,0,0,1-2.91.11c-.71-.25-1.05-.58-1-.64s.44.11,1.12.23a4.58,4.58,0,0,0,2.57-.25,4.64,4.64,0,0,0,2-1.64C375.9,366,376.05,365.54,376.14,365.56Z" style="fill:#455a64"></path><path d="M452.35,357.17a1.68,1.68,0,0,1,2.29.31c.9,1.22,1.82,9.74,1.82,9.74a18.84,18.84,0,0,1,.89,3.42c.16,1.45-5.19,9.4-5.19,9.4l-9-9.47s-1.87-.1-2.15-1.3a27.7,27.7,0,0,1-.21-4.49l3.51-2.84s-1.94-.88-2.26-1.82a3.46,3.46,0,0,1,.19-2.12Z" style="fill:#aa6550"></path><path d="M458.51,353.08c-1.63.88-5.15,2.4-5.42,7s1,11.8-.59,14.14-6.82,3-8.7-.69-1.62-13.41-2.05-15.15a6.13,6.13,0,0,0-3.3-3.72c-1.43-.73,10-8.33,10-8.33Z" style="fill:#FF725E"></path><path d="M441.54,395.24s-.91-13.78-.83-15.74.25-5.41,2-8.13a19.27,19.27,0,0,0,2.31-5.14c.13-.34.11-6.06,1.07-8s2-1.78,2.86-1.4,1.45,1.8,1.2,3.73a74.72,74.72,0,0,0-.3,8.89c.07,2.87,6.15,4.46,6.15,4.46s-2.89,9-3,10.3,1.67,11.62,1.67,11.62l-8.28,2.81Z" style="fill:#aa6550"></path><circle cx="446.71" cy="336.13" r="20.83" transform="translate(-33.47 49.85) rotate(-6.16)" style="fill:#FF725E"></circle><path d="M410.78,399.16s2.22-2.24,13.45,8.82c6.23,6.14,16.85,17.35,16.85,17.35l-.05-38.4,12-2.71s6.91,47.08,6.7,53c-.35,9.76-3.7,16.27-13.42,15.45s-33.89-20.81-33.89-20.81Z" style="fill:#aa6550"></path><polygon points="314.31 444.01 309.53 483.46 332.71 483.46 335.03 449.79 314.31 444.01" style="fill:#aa6550"></polygon><path d="M328.22,399.16a21.16,21.16,0,0,0-11.15,15.19c-1.67,9.28-6.72,42.47-6.72,42.47h29.36l1.39-27.66Z" style="fill:#455a64"></path><path d="M410.11,431.41,412,436.5l17.64,11.3,10.9-26.43S413.73,394.94,408.22,396L402,415.57Z" style="fill:#455a64"></path><path d="M452.86,335.45a4.73,4.73,0,0,1,1.71,3.83,5.3,5.3,0,0,1-.77,2.83,5.45,5.45,0,0,1-2.37,2,9,9,0,0,1-3.92.76,13.64,13.64,0,0,1-3.53-.47,9.33,9.33,0,0,1-3-1.35l1.56-3a7.32,7.32,0,0,0,2.23,1.13,8.46,8.46,0,0,0,2.6.4,4.08,4.08,0,0,0,2.33-.58,1.88,1.88,0,0,0,.85-1.63,1.83,1.83,0,0,0-.89-1.65,6.12,6.12,0,0,0-3.07-.56H442.3l.87-9.56h10.36v3.16h-7.08l-.27,3.22h1.38C450,334,451.72,334.49,452.86,335.45Z" style="fill:#fff"></path><path d="M390.19,393.87a234,234,0,0,0-39.06-.88c-1.23,0-21.29,4.19-22.91,6.17L335,446.6l.57,36.48,77.26.38-2.08-86.9C408.16,395.28,404.9,395.5,390.19,393.87Z" style="fill:#455a64"></path><path d="M410.83,403.89c.15,0,.57,9.15,1,20.44s.57,20.46.43,20.47-.57-9.15-1-20.45S410.69,403.89,410.83,403.89Z" style="fill:#263238"></path><path d="M331.11,410.27a2,2,0,0,1,.12.53c.06.4.14.9.24,1.51.19,1.31.45,3.22.74,5.58.58,4.72,1.27,11.26,1.82,18.5s.87,13.8,1,18.56c.08,2.37.12,4.3.12,5.63v1.53a2,2,0,0,1,0,.53,2,2,0,0,1-.07-.53c0-.41-.05-.91-.09-1.53-.07-1.4-.17-3.3-.28-5.62-.24-4.75-.62-11.3-1.17-18.53s-1.18-13.77-1.67-18.5c-.24-2.3-.43-4.2-.57-5.6-.06-.61-.11-1.11-.14-1.52A2,2,0,0,1,331.11,410.27Z" style="fill:#263238"></path><path d="M453.93,435.26a16.12,16.12,0,0,1-2.12-1.71c-1.27-1.08-3-2.57-5.05-4.15s-3.87-2.94-5.23-3.92a15.37,15.37,0,0,1-2.16-1.65,12.61,12.61,0,0,1,2.37,1.35c1.41.9,3.32,2.23,5.34,3.81s3.76,3.13,5,4.29A13.36,13.36,0,0,1,453.93,435.26Z" style="fill:#7f4437"></path></g><g id="freepik--character-3--inject-3"><path d="M286.21,312.29a1.59,1.59,0,0,1,2.2,0c1,1,3,9,3,9a17.07,17.07,0,0,1,1.26,3.13c.34,1.35-3.71,9.54-3.71,9.54l-9.72-7.82s-1.78.13-2.2-1a27,27,0,0,1-.76-4.23l3-3.13s-1.95-.59-2.37-1.43a3.29,3.29,0,0,1-.08-2Z" style="fill:#ffbf9d"></path><path d="M292.75,308.34c-1.58.8-5,2.16-5.34,6.57s.65,11.29-.9,13.48-6.57,2.69-8.29-.86S277,314.7,276.63,313a5.85,5.85,0,0,0-3.06-3.63c-1.35-.73,9.74-7.72,9.74-7.72Z" style="fill:#FF725E"></path><path d="M282.92,350.35s-4.74-13.61-4.91-15.47-.45-5.15.83-7.94a18.5,18.5,0,0,0,1.55-5.15c.07-.34-.67-5.75,0-7.69s1.68-2,2.53-1.69,1.6,1.52,1.6,3.38a70,70,0,0,0,.85,8.45c.42,2.7,3.55,9.71,3.55,9.71s-.09,3.05,0,4.31,3.71,9,3.71,9l-6.84,5.07Z" style="fill:#ffbf9d"></path><path d="M213.22,398a89.28,89.28,0,0,1,46.34,1.26c3.09.92,4.41-3.9,1.33-4.82a94.6,94.6,0,0,0-49-1.26c-3.13.76-1.8,5.58,1.33,4.82Z" style="fill:#FF725E"></path><path d="M231.27,316.39l.64-.17a12.09,12.09,0,0,1,9.87-5.89,15.68,15.68,0,0,1,11,4.09c2.09,1.84,3.73,4.13,5.82,6s4.87,3.21,7.59,2.64c.34,1-1.56,1.61-1.44,2.67a1.25,1.25,0,0,0,1.08.94,12.79,12.79,0,0,0,2.23,0,1.8,1.8,0,0,1,1.77,1.09,2.09,2.09,0,0,1-.08,1.08,19.36,19.36,0,0,1-4.42,8.65,10.13,10.13,0,0,1-8.85,3.22c-2.57-.48-4.72-2.17-6.76-3.8l-11.62-9.31a26.07,26.07,0,0,1-4.94-4.73A8.75,8.75,0,0,1,231.27,316.39Z" style="fill:#263238"></path><path d="M233.69,317a12.82,12.82,0,0,0-5.41-2.68,7.63,7.63,0,0,0-5.82,1.11c-1.53,1.11-2.47,2.83-3.55,4.39s-2.51,3.06-4.38,3.33a1.69,1.69,0,0,0-.94.3c-.42.4-.11,1.19.42,1.43a2.77,2.77,0,0,0,1.73,0A6.14,6.14,0,0,1,212.1,327a2.66,2.66,0,0,0,3.27,1.88,27.23,27.23,0,0,0-1.07,6.68,9.22,9.22,0,0,0,2.17,6.25c1.7,1.83,4.45,2.85,5.19,5.23" style="fill:#263238"></path><path d="M250,396.73l-30.23-.39,3.37-25.74s-2.06-.44-2.2-11.64-.65-30.24-.65-30.24h0a38.92,38.92,0,0,1,39.11,4.92l1.66,1.28Z" style="fill:#ffbf9d"></path><path d="M257.54,348.69c.19-.08,7.7-2.27,7.45,5.39s-7.88,5.83-7.89,5.61S257.54,348.69,257.54,348.69Z" style="fill:#ffbf9d"></path><path d="M221.58,347.1c-.19-.09-7-1.93-6.78,5.73s7.89,5.83,7.89,5.61S221.58,347.1,221.58,347.1Z" style="fill:#ffbf9d"></path><path d="M260,347.84c-1.14,6.42-.91,9.79-2,14.07-1.68,6.79-5.05,12-11.16,15.37s-14.37,3.33-19.62-1.28c-3.64-3.2-6.22-6.82-6.76-11.64s-2-13.86-2-18.71c-.06-8.74.23-16.58.23-16.58l25-4.52L257.94,333Z" style="fill:#263238"></path><path d="M234.26,381.15c0,.18,1.93.66,4.38.39s4.26-1.17,4.18-1.33-1.92.38-4.26.63S234.29,381,234.26,381.15Z" style="fill:#263238"></path><path d="M258.82,358.75c.73-6.58,1.2-14.1,2.23-21,.39-2.6,1.31-6.35,1.08-9s-.95-1.83-2.11-4.2c-1.45-3-7-5-10.25-5.61s-3.65-3.46-6.14-1.28a8.11,8.11,0,0,0-14.78,3.42,5.63,5.63,0,0,0-9.29,5.64,5.5,5.5,0,0,0-3.71,8.43c1.15,1.78,3.24,2.76,4.52,4.46a6.41,6.41,0,0,1,.38,6.91" style="fill:#263238"></path><path d="M226.64,357.38c-.17,0-.52,3.14.86,6.73s3.71,5.76,3.8,5.62-1.87-2.41-3.15-5.87S226.85,357.37,226.64,357.38Z" style="fill:#455a64"></path><path d="M223.28,351.79c-.15-.08-1.13,2.66-.49,6.07s2.48,5.63,2.6,5.5-1.34-2.39-1.91-5.63S223.49,351.83,223.28,351.79Z" style="fill:#455a64"></path><path d="M254.74,325.32a17.15,17.15,0,0,0-7.8-7c-3.29-1.31-7.34-1-10,1.26" style="fill:#263238"></path><path d="M254.11,342.27c-.13,0,0-.89.24-2.26a28.15,28.15,0,0,0,.58-5.31,11.76,11.76,0,0,0-1.14-5.07c-.6-1.21-1.21-1.83-1.11-1.93s.85.39,1.65,1.62a10.16,10.16,0,0,1,1.49,5.37,18.92,18.92,0,0,1-.86,5.47A5.7,5.7,0,0,1,254.11,342.27Z" style="fill:#455a64"></path><path d="M248.94,344.8c-.22-.12.4-1.63,1-3.54s1-3.49,1.23-3.46.25,1.74-.39,3.73S249.15,344.92,248.94,344.8Z" style="fill:#455a64"></path><path d="M225,342.84a6.48,6.48,0,0,1-1.71-2.74,13.5,13.5,0,0,1,2.93-14.66,6.33,6.33,0,0,1,2.64-1.86c.08.12-.93.82-2.18,2.29a14.33,14.33,0,0,0-2.8,14C224.42,341.72,225.08,342.76,225,342.84Z" style="fill:#455a64"></path><path d="M252.26,314.35a11.41,11.41,0,0,1-2.47-1,14.53,14.53,0,0,0-6-1.48,7.32,7.32,0,0,0-5.46,2.3,15.43,15.43,0,0,0-1.4,2.19c-.09,0-.13-1.16.91-2.58a6.78,6.78,0,0,1,2.33-1.95,8.24,8.24,0,0,1,3.61-.85,12.78,12.78,0,0,1,6.32,1.81C251.53,313.59,252.32,314.25,252.26,314.35Z" style="fill:#455a64"></path><path d="M218.1,321.44c-.09,0,.09-.89.89-2a8.24,8.24,0,0,1,9.74-2.83c1.28.53,1.89,1.15,1.83,1.24a18,18,0,0,1-2-.64,8.81,8.81,0,0,0-9.05,2.62C218.61,320.76,218.23,321.5,218.1,321.44Z" style="fill:#455a64"></path><path d="M226.34,349.59c0-.11,1.23-.44,3.25-1.34a26.28,26.28,0,0,0,7.39-5l1.45-1.41-.79,1.86a17.13,17.13,0,0,0-1.08,3.64c-.13.63-.23,1.43,0,1.53s.85-.15,1.43-.55a23,23,0,0,0,5.13-4.54l1.34-1.59-.61,2-1.69,5.48-.58-.35c3.51-3.31,4.73-6.27,4.9-6.16a6.25,6.25,0,0,1-.86,2,20.9,20.9,0,0,1-3.55,4.67l-.94.93.36-1.28c.47-1.68,1-3.54,1.56-5.53l.72.39a22.91,22.91,0,0,1-5.3,4.76,7.6,7.6,0,0,1-1,.57,1.45,1.45,0,0,1-1.45-.06,1.48,1.48,0,0,1-.49-1.32,10.22,10.22,0,0,1,.15-1.07,16.63,16.63,0,0,1,1.19-3.81l.66.46a23.77,23.77,0,0,1-7.77,4.86A10.73,10.73,0,0,1,226.34,349.59Z" style="fill:#455a64"></path><path d="M241,320.06a3.9,3.9,0,0,0-2.41-1.86,6.81,6.81,0,0,0-3.11-.08,11.18,11.18,0,0,0-6.52,3.77c-.37.45-.71,1.14-.31,1.57a1.35,1.35,0,0,0,.86.29,47.94,47.94,0,0,0,11.29-.4" style="fill:#263238"></path><path d="M255.6,392.87a235.4,235.4,0,0,0-39.07-.88c-1.23,0-31.62,6.54-33.24,8.52s14.77,82.19,14.77,82.19l85.33,1c.3-10.47-1.1-87.27-1.1-87.27C281.37,396.12,270.3,394.5,255.6,392.87Z" style="fill:#263238"></path><polygon points="214.93 392.25 220.75 383.52 252.73 384.97 259.43 393.37 240.12 397.24 214.93 392.25" style="fill:#263238"></polygon><path d="M259.43,393.37a8.84,8.84,0,0,1-1.78,0l-4.82-.16c-4.07-.13-9.7-.2-15.92-.26s-11.86-.21-15.93-.47c-2-.13-3.69-.26-4.82-.38a8.37,8.37,0,0,1-1.76-.26,8.84,8.84,0,0,1,1.78,0L221,392c4.07.13,9.7.2,15.92.26s11.86.21,15.93.47c2,.13,3.68.26,4.82.38A8.54,8.54,0,0,1,259.43,393.37Z" style="fill:#455a64"></path><path d="M246.53,395l9.12.42s19.94-6.94,21-6.45,4.5,3.89,4.5,3.89l5.72-10.21-7-32.1s5.8-4.21,10.45-4.21,6.26,2,6.26,2S305.75,377,306,384s-.61,13.49-3.16,19.09S286,424.15,286,424.15l-6.17,31.52-21-36.33Z" style="fill:#263238"></path><path d="M285.63,426a8.07,8.07,0,0,1,.15-1.41c.14-.9.29-2.21.42-3.83a53.44,53.44,0,0,0,.14-5.71,58.45,58.45,0,0,0-.69-7,55.7,55.7,0,0,0-1.62-6.8,56.6,56.6,0,0,0-2-5.35c-.65-1.49-1.22-2.68-1.65-3.49a7,7,0,0,1-.6-1.29,9,9,0,0,1,.78,1.2,36.3,36.3,0,0,1,1.8,3.43,45.84,45.84,0,0,1,2.11,5.36,47.77,47.77,0,0,1,2.33,13.88,47.33,47.33,0,0,1-.25,5.76c-.06.82-.2,1.55-.29,2.19s-.2,1.2-.3,1.64A6.63,6.63,0,0,1,285.63,426Z" style="fill:#455a64"></path><path d="M291.6,404.33c-.09,0-.25-.9-.73-2.31a18.86,18.86,0,0,0-6.71-9.21c-1.19-.88-2-1.31-2-1.39a7.14,7.14,0,0,1,2.19,1.09,16.62,16.62,0,0,1,6.86,9.4A7.39,7.39,0,0,1,291.6,404.33Z" style="fill:#455a64"></path><path d="M293.79,401.19a12,12,0,0,0-.53-2.12,9.23,9.23,0,0,0-3.38-3.88c-1.71-1.15-3.46-1.91-4.65-2.6a6.36,6.36,0,0,1-1.84-1.27,18.17,18.17,0,0,1,2,.94,36.47,36.47,0,0,1,4.78,2.5,8.69,8.69,0,0,1,3.43,4.18A3.61,3.61,0,0,1,293.79,401.19Z" style="fill:#455a64"></path><path d="M304.14,381.35c0,.08-.94-.49-2.52-1.07A14.79,14.79,0,0,0,289,381.43c-1.45.84-2.23,1.57-2.29,1.5s.14-.23.49-.56a11.62,11.62,0,0,1,1.61-1.26,13.94,13.94,0,0,1,13-1.17,11.48,11.48,0,0,1,1.81.95C304,381.15,304.16,381.32,304.14,381.35Z" style="fill:#455a64"></path><circle cx="282.18" cy="291.42" r="19.88" style="fill:#FF725E"></circle><path d="M183.29,400.51s-4.93,9.09-6.12,18.62-.21,63.63-.21,63.63l20.67.18L185.7,401.83" style="fill:#263238"></path><path d="M287.17,284a8.88,8.88,0,0,1,2,6.25,10.67,10.67,0,0,1-1.08,4.95,7.32,7.32,0,0,1-3.05,3.13,9.37,9.37,0,0,1-4.54,1.07,10.94,10.94,0,0,1-2.59-.3,7.08,7.08,0,0,1-2.12-.87l1.46-2.88a5.55,5.55,0,0,0,3.18.84,4.59,4.59,0,0,0,3.42-1.27,5.35,5.35,0,0,0,1.36-3.68,5.71,5.71,0,0,1-4.22,1.53,6.56,6.56,0,0,1-3-.65,5.16,5.16,0,0,1-2.11-1.86,5,5,0,0,1-.78-2.78,5.26,5.26,0,0,1,.85-3,5.48,5.48,0,0,1,2.32-2,7.52,7.52,0,0,1,3.26-.69A7.22,7.22,0,0,1,287.17,284ZM284,289.11a2.48,2.48,0,0,0,0-3.65,3.13,3.13,0,0,0-2.17-.7,3,3,0,0,0-2.05.67,2.34,2.34,0,0,0-.79,1.85,2.38,2.38,0,0,0,.79,1.86,3.09,3.09,0,0,0,2.1.69A3,3,0,0,0,284,289.11Z" style="fill:#fff"></path><path d="M187.93,416.13a3.13,3.13,0,0,1,.12.68c.06.49.15,1.13.25,1.93.2,1.74.49,4.16.84,7.12.73,6,1.82,14.3,3.27,23.43s3,17.35,4.14,23.29c.58,2.92,1,5.31,1.4,7,.15.79.27,1.42.36,1.91a4.79,4.79,0,0,1,.1.68,2.94,2.94,0,0,1-.2-.65l-.46-1.9c-.4-1.64-.93-4-1.56-7-1.26-5.93-2.85-14.15-4.3-23.28s-2.48-17.44-3.11-23.47c-.32-3-.55-5.45-.69-7.14-.06-.8-.1-1.45-.14-1.94A4.5,4.5,0,0,1,187.93,416.13Z" style="fill:#455a64"></path></g><g id="freepik--character-2--inject-3"><path d="M66.52,324.18a1.6,1.6,0,0,0-2.15-.48c-1.22.79-4.88,8.1-4.88,8.1a18,18,0,0,0-1.93,2.77c-.63,1.25,1.51,10.14,1.51,10.14l11.21-5.48s1.7.53,2.36-.45a25.93,25.93,0,0,0,1.68-3.95l-2.19-3.7s2-.15,2.62-.88a3.31,3.31,0,0,0,.54-2Z" style="fill:#ffbf9d"></path><path d="M61,318.88c1.36,1.13,4.37,3.21,3.75,7.6s-3.15,10.85-2.12,13.34,5.81,4.08,8.27,1,4-12.24,4.77-13.79a5.85,5.85,0,0,1,3.8-2.86c1.47-.41-7.79-9.68-7.79-9.68Z" style="fill:#FF725E"></path><path d="M61.28,362s7.64-12.22,8.21-14,1.59-4.92,1-7.93a18.66,18.66,0,0,1-.37-5.36c0-.35,1.93-5.46,1.71-7.5S70.58,325,69.7,325s-1.9,1.13-2.31,2.94a71,71,0,0,1-2.7,8c-1,2.54-5.62,8.69-5.62,8.69s-.59,3-1,4.2-5.61,7.91-5.61,7.91l5.55,6.46Z" style="fill:#ffbf9d"></path><circle cx="75.07" cy="304.73" r="19.88" transform="translate(-142.61 78.65) rotate(-30.08)" style="fill:#FF725E"></circle><path d="M77.27,414.23,65,410.05,46.9,396.71l21.9-34.84L52.07,349.23S29.9,380.71,25.31,390.07s-6.19,14.15-.8,20.54,47.65,37.48,47.65,37.48Z" style="fill:#FF725E"></path><path d="M143.63,482.76l4.13-28.58c0,.08,4.09-31.66,4.05-31.74a130.47,130.47,0,0,0-15.81-5.9l-9.34-5.29a15.5,15.5,0,0,1-3.29-8.88,59.11,59.11,0,0,1-.18-6.14l-27,1.54S92.45,408.64,86.06,412s-16.27,3.21-16.27,3.21-2,23.2-2,27.93L76,482.76Z" style="fill:#FF725E"></path><g style="opacity:0.30000000000000004"><path d="M133.33,394.38l-48,73.87c11.7,5.88,26.46,8.8,37.52,1.79,3.07,3.78,9.64,2.41,12.62-1.44s3.32-9.08,3.36-13.94C139.06,434.46,136.19,414.38,133.33,394.38Z"></path></g><path d="M114.05,342.07c-5.15-.84-10.46,1.39-14.3,4.92s-6.41,8.24-8.47,13c-4,9.35-6.34,19.32-8.65,29.22-3.4,14.6-6.82,29.28-7.73,44.24s3.57,23.79,10,37.32l22.82-3.16,0-4.32,3.08,4.32,8.86-1.37s2.66-23.17,2.66-23.1,4.22,22.06,4.22,22.06l7.38-.68c7.34-29.11-1-48.26,3.21-78,1-7.07,2.57-14.1,2.54-21.24s-1.87-14.6-6.79-19.77-13.42-7.29-19.47-3.49" style="fill:#263238"></path><path d="M119.64,466.27a1.3,1.3,0,0,1-.08-.33c0-.25-.12-.58-.2-1-.16-.9-.38-2.18-.67-3.8-.56-3.31-1.34-8.1-2-14a154.14,154.14,0,0,1-1.15-21,116.19,116.19,0,0,1,.92-12.42,107,107,0,0,1,2.69-13.1c2.53-8.82,6-16.84,7.76-24.56a49,49,0,0,0,1.35-11.1,30.48,30.48,0,0,0-1.46-9.58,25.87,25.87,0,0,0-3.64-7.13,21.62,21.62,0,0,0-4.21-4.34,19.48,19.48,0,0,0-3.25-2l-.91-.41-.31-.16a1.43,1.43,0,0,1,.33.11l.93.37a17.72,17.72,0,0,1,3.33,2,21.25,21.25,0,0,1,4.33,4.33,26,26,0,0,1,3.75,7.18,30.92,30.92,0,0,1,1.54,9.7,49,49,0,0,1-1.31,11.2c-1.7,7.79-5.22,15.84-7.73,24.6a105.51,105.51,0,0,0-2.68,13,118,118,0,0,0-1,12.36,160.13,160.13,0,0,0,1,21c.66,6,1.38,10.75,1.88,14.07.25,1.63.44,2.91.58,3.81.06.42.1.75.14,1A1.45,1.45,0,0,1,119.64,466.27Z" style="fill:#455a64"></path><path d="M87.55,451.11a.84.84,0,0,1,0-.27c0-.22-.06-.49-.1-.82l-.33-3.14c-.07-.69-.14-1.45-.22-2.27s-.11-1.74-.17-2.72c-.1-1.94-.28-4.16-.29-6.61,0-1.23,0-2.51-.06-3.85s0-2.74.06-4.18c0-2.89.23-6,.42-9.2a180.08,180.08,0,0,1,8-41.39c1-3.08,2-6,3-8.71.52-1.35,1-2.66,1.49-3.9l1.5-3.55c.91-2.28,1.9-4.27,2.72-6,.42-.88.79-1.71,1.16-2.45l1-2c.63-1.19,1.12-2.12,1.47-2.8l.4-.72c.09-.16.14-.24.15-.23a2.69,2.69,0,0,1-.11.26l-.34.74-1.39,2.84c-.3.62-.64,1.3-1,2.05s-.72,1.58-1.12,2.47c-.79,1.77-1.75,3.77-2.64,6.05-.47,1.14-1,2.32-1.46,3.56s-1,2.55-1.46,3.9c-1,2.69-2,5.63-3,8.7a185.39,185.39,0,0,0-7.95,41.28c-.2,3.23-.44,6.3-.47,9.18,0,1.44-.1,2.83-.09,4.17s0,2.62,0,3.84c0,2.45.14,4.66.21,6.61,0,1,.08,1.87.12,2.71s.13,1.58.18,2.27c.1,1.34.18,2.39.23,3.15,0,.34,0,.61,0,.82A1,1,0,0,1,87.55,451.11Z" style="fill:#455a64"></path><path d="M100.2,468.68a2.08,2.08,0,0,1-.1-.27c-.07-.21-.16-.48-.26-.82-.24-.76-.56-1.82-1-3.17-.2-.69-.43-1.46-.68-2.29s-.44-1.78-.69-2.77c-.45-2-1.09-4.23-1.51-6.77-.24-1.27-.48-2.59-.74-4s-.41-2.84-.63-4.34-.47-3-.57-4.65-.28-3.26-.43-4.95a161.31,161.31,0,0,1,.17-22.13,174.29,174.29,0,0,1,3.31-21.88c.38-1.65.76-3.27,1.12-4.84s.83-3.07,1.21-4.53c.76-2.93,1.64-5.61,2.42-8.06s1.59-4.63,2.26-6.56,1.33-3.56,1.87-4.9l1.25-3.06.34-.79a1,1,0,0,1,.13-.27,1.76,1.76,0,0,1-.09.29c-.07.21-.17.47-.28.81-.28.74-.67,1.78-1.16,3.1s-1.14,3-1.79,4.92-1.47,4.1-2.18,6.57-1.61,5.14-2.35,8.06c-.38,1.46-.83,3-1.18,4.53s-.73,3.18-1.1,4.83a179.5,179.5,0,0,0-3.27,21.82,165.27,165.27,0,0,0-.2,22.05c.14,1.69.27,3.34.4,4.95s.38,3.14.55,4.64.33,2.95.59,4.32.48,2.7.71,4c.39,2.54,1,4.78,1.43,6.77.24,1,.42,1.93.65,2.77s.45,1.61.64,2.31l.87,3.19c.08.34.15.62.21.83A1.28,1.28,0,0,1,100.2,468.68Z" style="fill:#455a64"></path><path d="M132.24,454.62s-.06-.09-.16-.28-.24-.51-.41-.86l-.66-1.41c-.24-.57-.51-1.23-.81-2a71.17,71.17,0,0,1-3.82-12.95,73.36,73.36,0,0,1,.69-31.67c1-4,2.2-8.07,3.47-12.22s2.5-8.22,3.39-12.21a60.66,60.66,0,0,0,1.57-11.65,37.61,37.61,0,0,0-1.08-10.54,27.43,27.43,0,0,0-3.72-8.43,23.52,23.52,0,0,0-10-8.66,20.18,20.18,0,0,0-3.47-1.11l-.93-.2a.17.17,0,1,1,0-.05l1,.14a19.35,19.35,0,0,1,3.53,1A23.39,23.39,0,0,1,131,350.24a27.89,27.89,0,0,1,3.84,8.52A37.73,37.73,0,0,1,136,369.42a60.59,60.59,0,0,1-1.55,11.75c-.89,4-2.11,8.09-3.39,12.25s-2.53,8.21-3.48,12.19a73.9,73.9,0,0,0-1.88,11.61A75.48,75.48,0,0,0,130.39,450l.76,2,.61,1.42c.16.37.28.66.37.89A1.36,1.36,0,0,1,132.24,454.62Z" style="fill:#455a64"></path><path d="M47.12,396.89a20.64,20.64,0,0,0-6,1.74,20.05,20.05,0,0,0-4.92,3.92A4.59,4.59,0,0,1,37.21,401a12.6,12.6,0,0,1,8-4.14A4.79,4.79,0,0,1,47.12,396.89Z" style="fill:#263238"></path><path d="M73.35,418.24c.07.05-.62,1.13-1.57,2.95a41.84,41.84,0,0,0-3,7.42,42.38,42.38,0,0,0-1.47,7.87c-.18,2-.18,3.33-.26,3.33a3,3,0,0,1-.11-.9c0-.58,0-1.42,0-2.45a34.66,34.66,0,0,1,1.34-8A34.2,34.2,0,0,1,71.46,421a23.92,23.92,0,0,1,1.32-2.07C73.12,418.47,73.32,418.22,73.35,418.24Z" style="fill:#263238"></path><path d="M151.81,422.44s7.44,5.28,9,16.56,4.78,43.76,4.78,43.76h-18l-3.44-13.52Z" style="fill:#FF725E"></path><path d="M150.89,435.55a2.5,2.5,0,0,1,0,.48c0,.37-.09.82-.14,1.37-.13,1.19-.34,2.9-.63,5-.58,4.23-1.49,10.07-2.55,16.5s-2,12.17-2.71,16.46c-.32,2.05-.59,3.74-.79,5-.09.54-.17,1-.23,1.35a1.6,1.6,0,0,1-.12.47,2.18,2.18,0,0,1,0-.48c0-.37.08-.83.13-1.37.13-1.19.34-2.9.63-5,.58-4.24,1.49-10.07,2.55-16.5s2-12.17,2.71-16.46c.32-2.05.59-3.74.79-5,.09-.54.17-1,.23-1.35A1.48,1.48,0,0,1,150.89,435.55Z" style="fill:#263238"></path><path d="M80.12,304.16a4.6,4.6,0,0,1,1.18,3.22,5.08,5.08,0,0,1-.77,2.73,5.44,5.44,0,0,1-2.37,2,9.09,9.09,0,0,1-3.89.75,13.53,13.53,0,0,1-3.53-.47A9.23,9.23,0,0,1,67.79,311l1.53-3a7.26,7.26,0,0,0,2.24,1.13,8.57,8.57,0,0,0,2.61.4A4.14,4.14,0,0,0,76.5,309a1.82,1.82,0,0,0,.85-1.61c0-1.39-1.06-2.09-3.18-2.09h-1.8v-2.6l3.5-3.95H68.64v-3.16H80.53v2.55l-3.84,4.37A5.77,5.77,0,0,1,80.12,304.16Z" style="fill:#fff"></path></g></svg>
